<?xml version="1.0" encoding="UTF-8" standalone="no"?>
<!-- Created with Inkscape (http://www.inkscape.org/) -->

<svg
   version="1.1"
   id="svg1"
   width="214"
   height="214"
   viewBox="0 0 214 214"
   sodipodi:docname="главная.png"
   inkscape:export-filename="..\source\GlucoTrack\src\GlucoTrack.Client\wwwroot\icons\bolus.svg"
   inkscape:export-xdpi="89.719627"
   inkscape:export-ydpi="89.719627"
   xml:space="preserve"
   xmlns:inkscape="http://www.inkscape.org/namespaces/inkscape"
   xmlns:sodipodi="http://sodipodi.sourceforge.net/DTD/sodipodi-0.dtd"
   xmlns="http://www.w3.org/2000/svg"
   xmlns:svg="http://www.w3.org/2000/svg"><defs
     id="defs1" /><sodipodi:namedview
     id="namedview1"
     pagecolor="#ffffff"
     bordercolor="#000000"
     borderopacity="0.25"
     inkscape:showpageshadow="2"
     inkscape:pageopacity="0.0"
     inkscape:pagecheckerboard="0"
     inkscape:deskcolor="#d1d1d1" /><g
     inkscape:groupmode="layer"
     inkscape:label="Image"
     id="g1"><path
       style="display:none;fill:#3b82f6;fill-opacity:1"
       d="m 51.57344,169.90302 c -1.802544,-0.88846 -4.390044,-2.93774 -5.75,-4.55396 l -2.472648,-2.93857 v -27.87225 -27.87225 l -3.452168,1.44241 c -3.742545,1.56374 -7.413326,0.79223 -10.796002,-2.26905 -4.490342,-4.0637 -2.823541,-5.997955 28.24817,-32.780847 10.725,-9.244632 23.927389,-20.675302 29.338642,-25.401489 11.564791,-10.10068 13.030681,-11.016888 17.661356,-11.038632 4.50771,-0.02117 9.57522,3.28232 23.5,15.319534 l 11,9.508903 0.26621,-8.691437 c 0.34466,-11.253141 1.28003,-12.191436 12.15344,-12.191436 11.91075,0 11.48669,-0.776105 12.08035,22.109044 l 0.5,19.274615 8.75,7.38314 c 7.9189,6.681866 8.75,7.714705 8.75,10.873905 0,1.91993 -0.45547,4.34182 -1.01215,5.382 -1.27042,2.37379 -7.33875,3.59407 -10.56438,2.12438 l -2.42347,-1.10421 -0.0436,23.22856 c -0.0239,12.77571 -0.42243,25.18973 -0.88551,27.58672 -1.10809,5.73578 -3.71367,9.14397 -9.09137,11.89184 -4.39137,2.24388 -4.53676,2.24994 -53.44146,2.22723 -43.096515,-0.02 -49.435201,-0.21849 -52.31546,-1.63815 z m 34.777352,-33.3981 c 0,-30.16865 -1.412115,-27.94701 17.749998,-27.92567 7.5625,0.008 14.24513,0.34592 14.8503,0.75 2.96669,1.98091 3.3997,5.56875 3.3997,28.16895 v 23.06574 h 14.56574 c 8.01116,0 15.38883,-0.4405 16.39482,-0.97889 3.51082,-1.87893 4.03966,-6.45865 4.03242,-34.92033 l -0.007,-27.60077 -16.14286,-13.500004 C 108.34536,56.093256 106.19908,54.613754 101.10079,55.92646 98.753155,56.530928 90.721029,63.292073 66.613361,84.956692 l -14.34662,12.892743 0.292026,29.253865 c 0.269502,26.99759 0.437091,29.41404 2.172887,31.3306 1.708772,1.88671 3.172697,2.10204 16,2.35338 7.765526,0.15216 14.456638,0.1376 14.869138,-0.0324 0.4125,-0.16996 0.75,-11.08246 0.75,-24.25 z"
       id="path1" /><path
       style="display:none;fill:#3b82f6;fill-opacity:1"
       d="M 40.5,181.58836 C 36.463682,179.7944 33.160507,176.04645 31.976118,171.91673 31.399354,169.90567 31,147.93886 31,118.22448 31,64.657516 31.173001,62.583331 35.8496,60.080491 36.960005,59.486221 41.88885,59 46.802589,59 h 8.934073 l 0.549696,-4.098293 c 0.66256,-4.939755 3.80732,-8.549883 8.733381,-10.025767 C 72.069828,42.763682 79,48.599831 79,56.649223 V 59 h 29 29 l 0.004,-2.75 c 0.009,-6.727607 7.12772,-12.878768 13.51708,-11.680116 C 155.22168,45.45177 160,50.931795 160,55.441089 v 3.371496 l 9.9663,0.343708 c 11.44468,0.394691 12.78462,1.154195 14.10652,7.99579 0.46204,2.391354 0.83992,25.947917 0.83974,52.347917 -3.6e-4,50.47914 -0.18212,52.77552 -4.56748,57.70743 -1.01479,1.14127 -3.64508,2.90159 -5.84508,3.91184 -3.74942,1.72174 -7.97798,1.83573 -67.5,1.81963 -50.721419,-0.0137 -64.103712,-0.28551 -66.5,-1.35054 z m 132.09501,-11.69231 c 1.79477,-1.98221 1.92138,-4.38337 2.18824,-41.5 L 175.0665,89 H 107.53325 40 l 0.05961,35.25 c 0.06341,37.49739 0.574438,44.27802 3.498161,46.4159 1.474966,1.07852 13.82724,1.3341 64.478369,1.3341 62.4154,0 62.66114,-0.008 64.55887,-2.10395 z M 119.5,149.0764 c -6.67706,-1.92432 -9.24217,-7.80673 -6.075,-13.93137 2.80102,-5.41656 10.94522,-6.86572 15.12045,-2.69048 3.04522,3.04521 3.41767,10.15461 0.70455,13.44845 -2.01413,2.44524 -6.83366,4.01388 -9.75,3.1734 z M 58.454545,146.54545 C 56.586471,144.67738 56,143.03132 56,139.65624 c 0,-5.83529 2.296638,-8.61808 7.711948,-9.34443 3.713163,-0.49804 4.539386,-0.21432 7.239781,2.48607 3.440641,3.44064 3.972884,7.51344 1.585256,12.1306 C 70.853684,148.18362 69.216684,149 64.372758,149 c -2.34414,0 -4.257025,-0.79336 -5.918213,-2.45455 z m 28,0 C 84.586471,144.67738 84,143.03132 84,139.65624 c 0,-6.08277 2.30962,-8.71138 8.241713,-9.38002 4.205476,-0.47402 4.961708,-0.22665 7.710539,2.52219 C 102.23709,135.08324 103,136.76078 103,139.5 c 0,8.21343 -10.784974,12.80594 -16.545455,7.04545 z m 56.566185,-0.0234 c -1.69665,-1.80599 -2.35405,-3.72752 -2.42432,-7.08606 -0.081,-3.87281 0.3513,-4.99332 2.70935,-7.02206 7.12142,-6.12691 17.01697,-0.27823 15.27147,9.02606 -1.33968,7.14112 -10.7378,10.21134 -15.5565,5.08206 z M 60.703929,120.40389 c -5.358487,-2.90539 -6.234343,-10.02732 -1.780852,-14.48081 3.88974,-3.88974 9.99131,-4.0996 13.622378,-0.46853 3.631067,3.63106 3.421208,9.73263 -0.468532,13.62237 -3.294749,3.29475 -6.955909,3.72192 -11.372994,1.32697 z M 89.5,120.79218 c -3.228416,-1.85149 -4.43432,-4.04273 -4.468197,-8.1191 -0.02428,-2.9218 0.659547,-4.51828 2.891274,-6.75 4.085826,-4.08583 9.115439,-4.03841 13.279043,0.12519 2.70215,2.70216 2.9843,3.52518 2.48491,7.24844 -0.95804,7.14268 -8.163864,10.94976 -14.18703,7.49547 z m 27.27351,-0.35184 c -4.98182,-2.70348 -5.37491,-11.8203 -0.67651,-15.69034 3.21484,-2.64805 9.44868,-2.29523 12.44845,0.70455 1.8717,1.87169 2.45455,3.51278 2.45455,6.9111 0,3.7488 -0.48862,4.86771 -3.07673,7.04546 -3.44263,2.89678 -7.08822,3.23331 -11.14976,1.02923 z m 28.54186,0.55268 C 142.39541,119.81654 141,116.96566 141,112.17653 c 0,-6.12475 2.64691,-8.67653 9,-8.67653 6.35739,0 9,2.55092 9,8.68771 0,7.23653 -6.76868,11.59181 -13.68463,8.80531 z M 70.964816,71.065741 C 72.652901,67.911527 72.269778,55.412635 70.428571,53.571429 66.137769,49.280626 62,54.162672 62,63.516082 62,70.686953 63.219458,73 67,73 c 1.872986,0 3.302998,-0.69764 3.964816,-1.934259 z m 80.999174,0.977674 c 2.2724,-1.437263 2.73241,-14.331636 0.62598,-17.546455 -1.98662,-3.031958 -6.07049,-3.336137 -7.55479,-0.562701 -1.11401,2.081557 -1.42745,14.879918 -0.42819,17.483954 0.66663,1.737223 5.01464,2.106719 7.357,0.625202 z"
       id="path2" /><path
       style="display:none;fill:#3b82f6;fill-opacity:1"
       d="m 90.415186,182.63307 c -6.667021,-3.02058 -6.955423,-3.74024 -16.67496,-41.60954 l -6.282133,-24.47648 -4.979046,-1.84318 C 51.932291,110.7996 49.906256,106.7522 44.894445,79.575201 42.756839,67.98384 41.006114,57.477853 41.003945,56.228561 c -0.0054,-3.134792 4.435058,-5.21813 6.570516,-3.082671 0.894811,0.894811 2.888412,8.939288 4.938441,19.927346 1.890822,10.13472 4.214063,21.076616 5.162758,24.315324 1.548822,5.28746 2.138292,6.07633 5.774619,7.72804 5.596604,2.54211 14.495217,2.50071 17.779503,-0.0827 6.466923,-5.086889 6.166112,-11.428102 -1.68564,-35.5339 -3.045486,-9.35 -5.538799,-17.6975 -5.540695,-18.55 -0.0046,-2.069461 1.982342,-3.95 4.1735,-3.95 2.679609,0 4.103776,2.960741 10.341865,21.5 4.781906,14.211564 5.741567,18.230192 5.850674,24.5 0.117515,6.753036 -0.194912,8.07425 -3.136975,13.26584 -3.018752,5.32692 -3.162212,5.97398 -1.884529,8.5 0.760629,1.50379 4.902705,12.14152 9.204614,23.63941 8.969904,23.97423 7.330924,23.54545 14.399184,3.76701 C 115.1783,135.942 117,129.69875 117,128.29835 c 0,-1.40039 -1.84413,-5.3029 -4.09807,-8.67226 -3.73394,-5.58177 -4.05713,-6.57035 -3.63736,-11.12609 1.44432,-15.674872 19.22164,-41.136962 37.20255,-53.284451 13.97413,-9.440599 23.41351,-11.298905 28.37525,-5.58616 1.79369,2.065182 2.19959,3.410833 1.73281,5.744711 -0.68165,3.408245 -20.75575,65.65027 -23.38988,72.523 -1.90254,4.96392 -5.35313,7.98078 -10.28086,8.98861 -3.30746,0.67645 -3.39146,0.83059 -6.6209,12.14971 -5.54018,19.41822 -6.5034,22.31105 -9.01247,27.0668 -1.58719,3.0084 -3.62473,5.17287 -5.88349,6.25 -4.61126,2.19895 -6.4559,2.08134 -10.4897,-0.66884 -3.3813,-2.30531 -3.41079,-2.30721 -6.0438,-0.38889 -3.40792,2.48289 -10.468437,3.13745 -14.438894,1.33858 z M 100.82389,171.1023 c 0.17814,-1.19267 -3.136914,-11.2661 -7.366782,-22.3854 C 81.251126,116.63033 80.072946,114 77.906682,114 c -2.482144,0 -2.429324,0.64518 1.036461,12.66003 1.611912,5.58802 4.778213,17.23479 7.036226,25.8817 4.354615,16.67572 5.955401,20.75512 8.770609,22.35078 2.267587,1.28526 5.629142,-0.81239 6.073912,-3.79021 z M 125.53981,154.5 c 7.76044,-24.12474 8.27767,-25.12442 13.45156,-25.99854 2.36868,-0.40019 4.43981,-1.43861 5.01577,-2.5148 0.53959,-1.00823 4.62496,-12.96215 9.07861,-26.564287 4.45366,-13.602133 9.63131,-28.750276 11.5059,-33.662542 C 166.46624,60.847565 168,56.64204 168,56.414219 c 0,-1.217161 -4.84333,-0.09659 -9.35477,2.164348 -14.85968,7.447034 -32.74254,27.374619 -38.58937,43.001683 -2.82361,7.54677 -2.6387,9.08536 1.91587,15.94122 2.98667,4.49575 3.96788,6.9706 3.95621,9.97853 -0.01,2.45763 -2.84573,11.70078 -7.35543,23.9713 -4.03694,10.98422 -7.10998,20.57047 -6.82896,21.30278 0.32708,0.85236 1.80157,1.22253 4.09764,1.0287 L 119.42789,173.5 Z M 67.695058,92.75 C 66.569525,91.916124 65.020903,86.839414 63.04313,77.5 61.41253,69.8 59.33054,60.462647 58.416485,56.750327 56.568071,49.243214 57.286623,47 61.539737,47 c 2.874612,0 4.173123,3.434957 8.316623,22 4.281795,19.184678 4.468943,20.523649 3.199993,22.894703 -1.283859,2.398914 -2.924502,2.660649 -5.361295,0.855297 z"
       id="path3" /><path
       style="display:none;fill:#3b82f6;fill-opacity:1"
       d="m 60.902958,185.98716 c -14.168689,-2.39668 -17.864499,-8.88174 -23.003573,-40.36454 -1.066337,-6.53255 -2.181486,-12.27005 -2.478107,-12.75 C 35.124656,132.39268 34.06921,132 33.075842,132 30.621858,132 26.282292,128.44657 24.48002,124.96136 23.591952,123.24403 23,119.33366 23,115.18452 23,103.3042 27.512652,100 43.738003,100 h 9.802241 L 59.357535,88.25 C 73.380347,59.92616 82.304764,50.704514 94.154691,52.293923 c 5.217289,0.699785 8.704389,3.124555 10.428839,7.251739 2.51704,6.024129 1.77175,8.840543 -6.624231,25.032833 L 89.918598,100.08559 97.559276,99.792797 105.19995,99.5 111.43784,84 c 12.10494,-30.078528 18.73608,-40.511191 29.45897,-46.347318 17.33234,-9.433442 35.74817,5.15409 33.80185,26.775096 -0.30064,3.339722 -2.38083,12.073855 -4.62264,19.409184 -2.24181,7.335329 -4.07602,13.972829 -4.07602,14.75 0,1.137124 2.29434,1.413338 11.75,1.414588 13.68358,0.002 17.68584,1.36824 20.49845,6.99845 3.03439,6.07419 1.61527,17.17815 -2.82208,22.08136 -0.97008,1.07193 -3.49397,2.22563 -5.60865,2.56378 -4.38307,0.70088 -3.88984,-0.64087 -6.35144,17.27829 -2.57289,18.72926 -5.60855,28.08574 -10.63491,32.77884 -5.65289,5.27807 -5.9783,5.30687 -58.54925,5.18011 -26.830167,-0.0647 -50.850789,-0.46754 -53.379162,-0.89522 z m 102.806702,-9.95167 c 4.20849,-2.56605 6.67738,-7.62885 8.79508,-18.03549 2.37282,-11.66041 4.2744,-24.88753 3.66545,-25.49648 C 175.47065,131.80398 45,131.8669 45,132.56678 c 0,2.77989 4.292881,27.08157 5.500123,31.1358 1.802554,6.05343 5.626574,11.00753 9.9503,12.89082 2.393474,1.04254 13.484139,1.33593 51.549577,1.36372 46.41892,0.0339 48.63772,-0.0486 51.70966,-1.92163 z m -91.295354,-17.2012 c -1.827133,-3.53329 -1.507661,-10.81195 0.58524,-13.33374 1.628805,-1.96259 6.435979,-1.92217 8.429025,0.0709 0.875152,0.87515 1.622452,3.42289 1.686583,5.75 C 83.361632,160.26526 82.433727,162 77.403235,162 c -2.751883,0 -3.644911,-0.56667 -4.988929,-3.16571 z m 21.142398,0.9432 c -2.247039,-3.20809 -2.077762,-11.99596 0.272037,-14.1225 2.610119,-2.36213 6.753749,-2.08915 8.614559,0.56752 0.85618,1.22237 1.5567,4.27225 1.5567,6.77749 0,5.75933 -2.16045,9 -6,9 -1.849304,0 -3.445989,-0.79865 -4.443296,-2.22251 z m 25.999996,0 C 118.70052,158.55512 118,155.50524 118,153 c 0,-5.75933 2.16045,-9 6,-9 3.91334,0 6,3.23024 6,9.28825 0,6.6744 -1.28121,8.71175 -5.47848,8.71175 -2.38823,0 -3.87396,-0.66509 -4.96482,-2.22251 z m 20.40635,0.67799 c -0.70511,-0.84961 -1.31877,-4.26306 -1.36393,-7.58684 -0.0663,-4.87784 0.29036,-6.31466 1.85052,-7.45548 2.65602,-1.94213 5.91701,-1.77048 7.89537,0.41558 1.89655,2.09567 2.28932,11.11749 0.61981,14.237 -1.28048,2.39259 -7.12939,2.64582 -9.00177,0.38974 z M 188.77749,122.4433 C 190.543,121.20668 191,119.91127 191,116.1433 191,113.53448 190.46,110.86 189.8,110.2 188.88737,109.28737 170.09401,109 111.32305,109 H 34.046106 l -1.635172,2.49559 c -1.143222,1.74477 -1.439002,3.54126 -0.983132,5.97126 C 32.720775,124.35898 28.32098,124 111.5,124 c 66.31216,0 75.31388,-0.18133 77.27749,-1.5567 z M 81.928049,96.75 C 82.546084,94.9625 86.190105,87.769625 90.025874,80.765834 93.861643,73.762042 97,66.915375 97,65.551017 97,61.220846 91.088482,59.585468 86.441716,62.630146 83.347384,64.657631 74.858296,77.378136 68.009481,90.25 L 62.821735,100 h 8.991308 8.991307 z m 76.223191,-3.477529 c 3.55793,-13.188904 3.90561,-11.902563 -3.83268,-14.180084 -3.75021,-1.103756 -8.72653,-2.492206 -11.0585,-3.085444 -3.2334,-0.822556 -4.38754,-1.66668 -4.86167,-3.555765 C 137.66654,69.53524 139.42371,67 142.1766,67 c 1.06245,0 5.93298,1.125 10.8234,2.5 4.89042,1.375 9.33415,2.5 9.87494,2.5 0.5408,0 1.5068,-2.521839 2.14667,-5.604086 1.87017,-9.00856 -1.13608,-17.85239 -7.12045,-20.947026 -10.20122,-5.275257 -20.93382,2.808838 -30.35616,22.865111 -7.50433,15.973625 -7.60884,14.41368 0.99474,14.848141 8.53661,0.431079 10.30409,1.542743 8.87615,5.582712 -0.96563,2.732004 -1.05224,2.755822 -10.31009,2.835384 -9.95249,0.08553 -10.18952,0.202863 -11.49502,5.690126 l -0.65911,2.770358 20.7598,-0.270358 L 156.47126,99.5 Z"
       id="path4" /><path
       style="display:none;fill:#3b82f6;fill-opacity:1"
       d="M 95.5,184.609 C 80.595134,180.96949 65.278205,169.3063 58.846333,156.69879 53.472861,146.16591 51.588533,128.61185 54.504006,116.24643 56.686435,106.99008 60.967192,99.290653 80.216266,70 89.794586,55.425 98.886497,41.35498 100.42051,38.733288 c 4.6652,-7.972997 10.02354,-9.936414 14.96439,-5.483288 3.12815,2.819353 41.06079,62.862663 46.71236,73.94064 3.35755,6.58134 4.8856,12.72501 5.54879,22.30936 0.73132,10.56907 -1.72045,22.35807 -6.26125,30.10636 -7.06978,12.06366 -19.33363,21.27514 -33.02914,24.80846 -7.33042,1.89117 -25.46698,1.99836 -32.85566,0.19418 z m 25.7582,-33.07242 c 7.83835,-3.27507 11.22104,-10.65304 10.50467,-22.91167 -0.3928,-6.72166 -1.1942,-9.76565 -4.64013,-17.62491 -7.19024,-16.399055 -13.46769,-23.448386 -17.73045,-19.910609 -1.96574,1.631419 -13.831127,19.871549 -17.043123,26.199629 -3.813698,7.51351 -4.370984,16.96874 -1.365995,23.17622 2.443302,5.04719 7.149628,9.34807 12.255708,11.19989 4.59853,1.66775 13.87862,1.60155 18.01932,-0.12855 z M 69.807231,128.15442 c 2.353776,-11.39585 8.308105,-23.11771 18.576216,-36.569671 6.187804,-8.106463 3.134651,-14.562396 -3.518581,-7.440087 -5.60033,5.995172 -15.218656,20.259248 -17.598328,26.098498 -3.209508,7.87551 -4.09483,17.84376 -1.884398,21.21731 0.915181,1.39674 2.013558,2.53953 2.440837,2.53953 0.427278,0 1.320193,-2.63051 1.984254,-5.84558 z"
       id="path5" /><path
       style="display:none;fill:#3b82f6;fill-opacity:1"
       d="m 35.20676,181.89189 c -3.032975,-1.76655 -1.965383,-3.92825 5.964306,-12.07676 6.866684,-7.05617 7.580881,-8.14083 6.5,-9.8716 -2.221578,-3.55731 -1.365993,-6.58653 3.338094,-11.8186 l 4.5524,-5.06337 -1.800201,-2.74745 c -1.290009,-1.9688 -1.800825,-4.68775 -1.8024,-9.59373 l -0.0022,-6.84628 24.83263,-24.666175 24.832631,-24.666176 -1.51842,-3.184163 c -5.007654,-10.501154 -0.957174,-19.395017 8.82567,-19.379012 4.44956,0.0073 5.85907,0.815143 16.36584,9.380157 l 7.22133,5.886747 6.22016,-5.886747 c 3.42109,-3.23771 7.50683,-7.354801 9.07943,-9.14909 l 2.85928,-3.262343 -2.85928,-3.574072 c -5.45623,-6.820258 -5.84868,-7.805486 -4.45215,-11.177005 1.48497,-3.585033 5.05225,-4.837098 8.54011,-2.997461 1.32768,0.700273 9.4202,8.156897 17.98337,16.570273 10.76938,10.580996 15.56825,15.976215 15.56566,17.5 -0.006,3.313692 -3.61474,8.569093 -6.35754,9.257491 -2.31207,0.580293 -7.8756,-1.510773 -9.04233,-3.398583 -0.29174,-0.472047 -4.13584,2.74713 -8.54244,7.153726 l -8.01199,8.011994 7.40865,7.75455 c 4.73643,4.957561 7.76756,9.054409 8.40372,11.358349 1.76179,6.38069 -1.60479,13.72756 -7.39999,16.14895 -4.84142,2.02288 -8.43323,1.76183 -13.91022,-1.01098 l -4.79484,-2.42746 -21.62464,22.07241 c -12.15459,12.40626 -23.033843,22.66581 -24.842522,23.42745 -3.939686,1.65901 -10.258937,1.74189 -15.398734,0.20197 -3.794277,-1.13679 -3.918939,-1.08734 -8.823178,3.5 -5.442747,5.09105 -7.015704,5.45494 -13.08408,3.02686 l -4.064345,-1.62623 -7.349311,7.12623 c -7.257011,7.03673 -9.386454,8.0416 -12.812471,6.04613 z m 32.757661,-22.17284 c 3.231069,-2.77924 2.630302,-4.9017 -2.344248,-8.28199 l -3.58456,-2.43577 -2.789426,2.67244 c -3.451465,3.30671 -3.460771,3.98809 -0.102335,7.49354 3.251141,3.39346 5.363317,3.52559 8.820569,0.55178 z m 48.280269,-28.23246 c 26.20031,-26.44484 26.51061,-26.65861 31.99628,-22.04273 4.48747,3.77596 7.57715,4.66375 10.09447,2.90055 3.83779,-2.68809 2.57005,-5.20401 -8.12868,-16.132068 -10.96593,-11.200979 -33.44927,-31.715764 -38.02562,-34.69625 -2.67277,-1.740716 -2.84932,-1.741017 -4.76414,-0.0081 -2.421,2.190976 -1.84513,4.640128 2.17468,9.248814 1.57579,1.806638 2.86508,3.812665 2.86508,4.457837 0,0.645173 -1.64609,2.858789 -3.65797,4.919146 l -3.65798,3.746104 3.65798,4.048939 c 4.0897,4.526809 4.05501,4.432788 2.62279,7.108919 -1.45535,2.719336 -3.65754,2.411238 -7.6176,-1.065741 -1.87925,-1.65 -3.73865,-2.995201 -4.132016,-2.989335 -1.429316,0.02131 -10.215204,8.811524 -10.215204,10.220225 0,0.79626 1.575,2.88097 3.5,4.63268 3.937126,3.5827 4.216101,4.68766 1.845013,7.30768 -2.512613,2.77641 -5.367277,2.2129 -9.567642,-1.88865 l -3.806954,-3.71739 -10.494406,10.45869 c -5.771923,5.75228 -10.758407,11.29049 -11.081075,12.30712 -0.87744,2.76457 3.056144,7.58581 12.229141,14.98877 10.120402,8.16756 14.18374,10.66765 17.375923,10.69107 1.948743,0.0143 7.855562,-5.3872 26.78793,-24.49626 z m 36.2852,-57.264605 c 8.48079,-8.956038 8.42044,-8.847771 6.53562,-11.724377 -0.91017,-1.389093 -2.20698,-2.506031 -2.8818,-2.482086 -0.67482,0.02395 -4.60195,3.164886 -8.72695,6.979869 l -7.5,6.936332 3,2.484168 c 1.65,1.366292 3.46692,2.500351 4.03759,2.520131 0.57068,0.01978 3.06167,-2.101537 5.53554,-4.714037 z"
       id="path6" /><path
       style="display:none;fill:#3b82f6;fill-opacity:1;stroke-width:1.11867"
       d="m 88.998544,185.79719 c -25.16684,-8.61847 -40.180647,-29.42833 -40.239482,-55.77386 -0.04639,-20.77048 2.347187,-25.22143 45.068128,-83.806232 10.84286,-14.869219 13.79749,-16.820105 19.46123,-12.849919 3.665,2.56911 48.83692,70.785281 51.12007,77.198751 1.25447,3.52387 2.09754,8.99568 2.47175,14.81501 0.50273,7.818 0.15923,16.26322 -1.1698,21.45502 -2.37969,9.29617 -7.9168,18.27985 -16.0553,26.04882 -11.53666,11.01284 -23.79962,15.47909 -42.36733,15.43041 -8.410243,-0.0221 -12.742547,-0.6185 -18.289266,-2.518 z M 107.4167,154.491 c 5.58637,-5.77321 16.86706,-21.28155 24.13433,-33.17907 l 3.68976,-6.04066 -2.69332,-2.18264 c -2.14989,-1.74226 -3.7236,-2.04586 -7.79962,-1.50474 -3.50183,0.46492 -5.76886,0.19308 -7.21483,-0.86508 -2.06018,-1.50763 -2.05366,-1.73234 0.28438,-9.80083 3.9668,-13.68932 4.15675,-16.103546 1.47794,-18.784486 -2.9569,-2.959252 -3.63322,-2.933931 -6.61997,0.247848 -3.41961,3.642896 -24.719585,37.714248 -25.518744,40.819668 -0.428412,1.66475 0.07273,3.3781 1.429829,4.88841 1.825855,2.032 3.006291,2.2551 9.357869,1.76871 11.763496,-0.90084 11.937246,-0.57254 6.075966,11.48064 -4.349598,8.94454 -6.352157,19.02756 -3.77901,19.02756 0.81963,0 4.04858,-2.6439 7.17542,-5.87533 z M 67.157537,124.83458 c 3.342655,-9.50565 6.883676,-16.19802 15.992606,-30.22532 6.699695,-10.317196 7.274035,-14.030198 2.259775,-14.609013 -2.600687,-0.300206 -3.831276,0.729458 -8.693687,7.274216 -8.882698,11.956033 -14.681147,24.450817 -15.377832,33.136927 -0.606493,7.56161 0.161537,13.0963 1.817331,13.0963 0.523555,0 2.324368,-3.9029 4.001807,-8.67311 z"
       id="path7"
       sodipodi:nodetypes="sssssssscssscsssssssssssssssssss" /><path
       style="display:none;fill:#3b82f6;fill-opacity:1"
       d="m 42.5,172.60153 c -1.65,-0.73055 -3.9,-2.337 -5,-3.56989 -1.903685,-2.13366 -2,-3.65549 -2,-31.60091 0,-26.83361 0.153382,-29.51292 1.782956,-31.14502 1.466612,-1.46888 3.879768,-1.84432 13.600834,-2.11605 11.384458,-0.31823 11.924203,-0.23894 14.717044,2.16201 L 68.5,108.82402 68.795912,135.91201 69.091823,163 H 74.045912 79 l 0.127426,-25.75 c 0.285284,-57.649699 0.305376,-58.279969 1.889752,-59.281778 0.815552,-0.515678 7.194805,-0.944487 14.176118,-0.952909 11.992034,-0.01447 12.779294,0.107473 14.250004,2.207193 1.34715,1.92333 1.5567,7.711652 1.5567,43.000004 V 163 h 5 5 v -55.77749 c 0,-48.864524 0.19294,-56.052951 1.5567,-58.000004 C 124.03353,47.11404 124.80029,47 137.5,47 c 12.69971,0 13.46647,0.11404 14.9433,2.222506 1.36376,1.947053 1.5567,9.13548 1.5567,58.000004 V 163 h 7.97695 c 7.45287,0 8.08703,0.16801 9.65251,2.55724 1.58781,2.4233 1.57028,2.69828 -0.33473,5.25 l -2.0103,2.69276 -61.89222,0.2149 C 57.739987,173.8873 44.906711,173.66712 42.5,172.60153 Z M 61,138.25103 60.5,113.5 52.25,113.20956 44,112.91912 l -0.141077,4.29044 c -0.323877,9.84978 0.227097,44.12061 0.72221,44.92172 0.295295,0.47779 4.222843,0.86918 8.727884,0.86975 l 8.190983,0.001 z"
       id="path8" /><path
       style="display:none;fill:#3b82f6;fill-opacity:1"
       d="m 100.02056,174.93525 c -4.013679,-1.68443 -6.038345,-4.0328 -9.643449,-11.18525 -3.708053,-7.3567 -4.897098,-7.94005 -9.501444,-4.66147 -1.61319,1.1487 -4.511284,2.5243 -6.440209,3.0569 -5.237289,1.44609 -13.007612,-2.39791 -18.24777,-9.0272 -6.168911,-7.80426 -6.502905,-12.19987 -1.432897,-18.85802 1.35686,-1.78189 2.235434,-3.8433 1.952386,-4.58091 -0.283048,-0.73761 -3.229592,-2.33104 -6.547875,-3.54094 -9.964945,-3.6334 -12.801985,-8.70427 -11.991462,-21.4333 0.587879,-9.232458 2.380308,-11.165155 14.59488,-15.737016 4.249511,-1.590574 5.17162,-4.964764 2.340413,-8.564061 -2.824551,-3.590835 -4.364901,-9.59476 -3.221466,-12.556527 1.329199,-3.442943 7.106717,-10.393706 11.062613,-13.309105 4.479755,-3.301471 8.785712,-3.240805 15.022474,0.211649 4.669879,2.585083 5.133384,2.658471 7.72896,1.223758 1.811855,-1.00151 3.393166,-3.236256 4.599414,-6.5 3.493079,-9.451223 9.867222,-13.240791 20.448042,-12.156819 8.34107,0.854515 10.57699,3.104478 15.35138,15.447789 0.4818,1.245601 2.06593,2.806899 3.52029,3.469552 2.30684,1.051067 3.26592,0.857762 7.51525,-1.514728 5.8913,-3.28923 10.90582,-3.478512 15.58246,-0.58819 4.07657,2.519457 11.03469,11.013366 11.9237,14.55549 0.87638,3.491766 -1.13377,9.492461 -4.11943,12.297348 -4.50794,4.234984 -3.07249,6.474661 6.04457,9.431159 9.76798,3.167579 10.93861,5.050273 10.93861,17.592311 0,9.5366 -0.0962,9.96138 -2.92322,12.91219 -1.60778,1.67816 -5.59587,4.07021 -8.86243,5.31567 -3.26657,1.24546 -6.13987,2.76994 -6.38513,3.38773 -0.24526,0.61779 0.93033,3.29339 2.61243,5.94578 3.43234,5.41224 3.81354,9.03094 1.4464,13.73062 -5.95647,11.82585 -18.15471,16.42937 -27.37171,10.32985 -2.28542,-1.51242 -4.66977,-2.57837 -5.29856,-2.36877 -0.62878,0.20959 -2.73502,3.4758 -4.68051,7.25822 -4.70929,9.15578 -7.22332,10.87951 -16.338,11.20207 -3.9596,0.14012 -8.31502,-0.21348 -9.67871,-0.78578 z m 15.05636,-11.85833 c 1.6077,-1.60769 2.92476,-3.74519 2.92682,-4.75 0.006,-3.13715 3.60763,-7.91462 7.27933,-9.65696 5.02082,-2.38253 9.45671,-2.10582 13.30582,0.83004 4.54747,3.46853 7.89329,3.21782 12.01111,-0.9 4.0747,-4.0747 4.30091,-6.99032 0.9,-11.6 -3.00505,-4.07312 -3.16385,-7.77842 -0.55271,-12.89669 1.91981,-3.76313 3.3614,-4.66932 11.31039,-7.10981 4.78107,-1.46787 5.9135,-3.66022 5.54145,-10.72806 L 167.5,100.58298 161.70917,99.173739 c -9.3749,-2.281455 -14.38846,-9.043858 -12.61871,-17.020394 0.40838,-1.84066 1.6801,-4.344663 2.82603,-5.564451 2.50691,-2.668484 2.67031,-6.262588 0.43721,-9.616388 -3.77843,-5.674634 -6.5852,-6.246332 -12.13889,-2.472506 -4.45113,3.024621 -11.05485,3.32972 -16.19974,0.748446 C 120.28933,63.37918 116.04395,57.010835 116.01645,53.25 115.9894,49.550814 112.57684,47 107.65499,47 c -5.09303,0 -6.88633,1.569921 -9.162461,8.021174 C 94.6541,65.900441 84.098136,70.27029 75.595138,64.5 c -5.01049,-3.40021 -6.76262,-3.163899 -10.955971,1.477639 -3.907274,4.324885 -3.904886,5.11243 0.03337,11.004496 2.859518,4.27815 2.961827,8.85408 0.314002,14.044245 -2.115907,4.14752 -7.937104,7.960448 -12.196704,7.988933 -3.934458,0.02631 -5.090665,1.529967 -5.492208,7.142647 -0.565357,7.90246 0.898531,9.91797 8.41457,11.58535 7.113657,1.57812 10.6001,4.7774 11.721746,10.75628 0.572284,3.05054 0.173309,4.43735 -2.454886,8.53304 -3.582719,5.58318 -3.407758,7.38483 1.160817,11.9534 3.667065,3.66707 5.85001,3.77246 10.645311,0.51397 4.138994,-2.81252 8.641368,-3.18427 13.57903,-1.12118 3.798604,1.58716 7.546187,5.92832 8.28274,9.59464 0.779829,3.88173 2.917075,6.17951 6.547305,7.03908 5.61434,1.32937 6.86205,1.085 9.88266,-1.93562 z M 98,131.74313 C 84.073674,125.49574 77.981304,108.94335 84.794188,95.864192 88.905466,87.971494 96.808348,82.73434 105.43619,82.18496 c 11.26701,-0.717429 21.32022,4.641942 26.12064,13.924931 2.51343,4.860439 2.99461,13.713789 1.06165,19.533389 -3.6662,11.03792 -12.89803,17.40578 -25.06482,17.28904 C 103.67415,132.8951 99.375,132.35996 98,131.74313 Z M 116.91522,120.6748 C 121.48963,117.6476 124,112.71243 124,106.74675 124,92.094485 103.68009,86.147196 94.714896,98.175508 c -2.653435,3.560032 -3.350909,11.366532 -1.426951,15.971212 1.527913,3.65681 6.600951,8.21908 10.212055,9.18387 3.76273,1.00531 9.6416,-0.15852 13.41522,-2.65579 z"
       id="path9" /><path
       style="display:none;fill:#3b82f6;fill-opacity:1"
       d="m 52.313278,166.05526 c -3.398572,-1.54299 -4.411068,-2.64962 -5.378469,-5.87851 -3.189735,-10.64639 5.337792,-27.47401 17.597957,-34.72657 8.988963,-5.31747 10.77362,-5.54845 42.467234,-5.49637 27.93469,0.0459 29.8434,0.1678 35.97177,2.29733 12.8256,4.45674 24.75254,19.37931 25.82496,32.31129 0.33136,3.99571 0.004,6.09348 -1.25167,8.00915 -3.51864,5.37012 -4.18347,5.43026 -59.76294,5.40646 -48.228386,-0.0207 -51.53143,-0.13515 -55.468842,-1.92278 z m 103.104932,-8.66225 c 2.94049,-1.12837 1.4995,-9.90761 -2.64094,-16.09002 -3.69102,-5.51132 -12.71763,-10.93082 -21.43729,-12.87076 -6.29347,-1.40017 -11.13507,-1.60806 -27.73229,-1.19083 -17.575659,0.44184 -20.835819,0.78384 -25.890001,2.71598 -11.34433,4.33678 -19.498024,12.91414 -20.469509,21.53313 -0.383349,3.40106 -0.14349,4.96206 0.860113,5.59758 1.543757,0.97757 94.795557,1.26977 97.309917,0.30492 z M 97.286039,110.61444 C 82.267708,105.68851 73.570741,94.094736 73.570741,79 c 0,-5.987311 0.529449,-8.644631 2.625037,-13.175146 3.497929,-7.562281 9.769072,-14.16901 16.662715,-17.554386 4.92045,-2.416367 6.791822,-2.766179 14.641507,-2.736912 7.74516,0.02888 9.79336,0.41848 14.69015,2.794309 7.35138,3.566749 15.06301,11.907545 17.33575,18.750111 5.81523,17.508028 -1.56317,34.742804 -17.98334,42.006224 -6.10248,2.69942 -18.33847,3.47133 -24.256521,1.53024 z m 17.814741,-8.77068 C 136.5643,94.542991 137.78857,65.116929 117,56.194774 111.7627,53.947 102.42799,54.312369 96.74376,56.987622 81.044026,64.376615 78.125002,86.247486 91.329989,97.550463 c 5.854527,5.011257 16.178321,6.875857 23.770791,4.293297 z"
       id="path10" /><path
       style="display:none;fill:#3b82f6;fill-opacity:1;stroke-width:1.20065"
       d="M 82.441227,193.56174 C 74.550512,192.0283 67.26839,189.04017 60.590655,184.59565 49.531695,177.23507 28.513471,154.09921 28.632145,131.10705 28.752532,107.78357 37.596404,96.212068 62.864744,71.420896 78.712393,55.872515 90.732854,40.0459 93.273913,28.952215 96.126645,16.497838 91.120907,16.182934 103.6285,22.402156 c 7.20812,3.584133 19.89795,12.818107 26.995,25.712044 9.29201,16.881749 0.69261,40.167045 8.31455,41.181894 4.83171,0.643335 8.65267,-2.167812 12.72162,-9.359523 2.68523,-4.746055 4.81891,-7.622315 6.27315,-6.767672 29.51773,22.988097 32.46116,59.559581 25.08251,79.639651 -8.97452,24.42302 -30.9007,40.76926 -56.32289,41.98941 -4.67965,0.22461 -4.76344,-5.06979 -0.40194,-11.22121 17.3886,-24.5247 -2.17202,-47.4072 -17.34985,-46.21508 -21.532212,1.69124 -29.88929,28.35381 -16.647173,47.24777 6.248806,8.72238 3.203533,11.48948 -9.85225,8.9523 z"
       id="path11"
       sodipodi:nodetypes="ssssssssssssssss" /><path
       style="fill:#3b82f6;fill-opacity:1"
       d="M 82.218687,167.66171 C 47.041442,163.6596 23.166461,140.77529 23.10993,111.00563 23.08343,97.050457 26.99554,87.167988 36.637361,76.833675 54.17496,58.036496 77.305117,51.880038 106.72411,58.178978 c 10.55236,2.25938 13.53293,3.804308 13.17405,6.82854 -0.47373,3.992067 -2.34167,4.329973 -11.32862,2.049327 C 93.102226,63.131657 75.226681,63.664691 62.617038,68.42711 42.315685,76.094539 29.072991,96.812215 31.845039,116.5687 c 2.755342,19.63742 16.616797,33.99251 38.894135,40.27924 7.823189,2.20772 10.072175,2.45427 22.243486,2.43847 14.07957,-0.0183 21.1372,-1.12983 30.83853,-4.85693 2.49759,-0.95954 5.36464,-1.74481 6.37122,-1.74506 1.86282,-4.5e-4 4.72164,2.49802 4.72164,4.12649 0,1.78312 -3.32207,3.86608 -9.61803,6.03059 -12.6814,4.35979 -30.045785,6.3028 -43.077333,4.82021 z m 56.920273,-13.08314 c -7.16827,-2.3997 -10.60734,-4.84697 -14.1539,-10.07203 -3.55755,-5.24127 -5.0431,-11.4843 -6.66877,-28.02562 -0.54889,-5.58498 -1.36311,-13.29716 -1.80939,-17.138174 -1.73467,-14.93004 -0.48676,-19.909033 5.67746,-22.652263 7.384,-3.286064 30.70943,-3.906615 43.74144,-1.1637 6.60202,1.389563 11.7932,6.313473 11.7932,11.186032 0,0.888153 1.33953,1.513564 4.14946,1.937338 8.31741,1.254373 12.55864,3.973891 15.17328,9.729242 2.17536,4.788395 2.03264,9.724235 -0.43405,15.011025 -3.49685,7.49473 -9.23983,12.02474 -21.55783,17.00462 -1.74358,0.70489 -2.54756,2.04844 -3.67194,6.13627 -1.90668,6.93198 -6.27537,13.31912 -11.20857,16.38719 -5.4034,3.3605 -13.93841,4.03422 -21.03039,1.66007 z m 16.53037,-8.95383 c 5.83415,-3.59553 8.24114,-10.22002 10.74975,-29.58532 0.94368,-7.28476 1.94979,-14.39238 2.2358,-15.79472 0.4962,-2.432917 0.40559,-2.521827 -1.9781,-1.941115 -1.37397,0.334723 -7.85463,0.836089 -14.40148,1.114147 -10.71347,0.455023 -19.66701,-0.265735 -25.56205,-2.057737 -1.56367,-0.475331 -1.61714,-0.07345 -1.03315,7.764575 0.94631,12.70081 3.09085,27.23902 4.5327,30.72802 2.93499,7.10206 9.71235,11.48358 17.8048,11.51069 3.27904,0.011 5.70867,-0.54105 7.65173,-1.73854 z m 24.71775,-26.37039 c 4.95732,-3.22249 7.37777,-5.91558 9.13296,-10.16171 2.75972,-6.67625 -0.0378,-10.770939 -8.011,-11.725437 l -4.29308,-0.513941 -0.20289,2.97057 c -0.11159,1.633818 -0.71841,7.242088 -1.34848,12.462838 -0.84406,6.99372 -0.88444,9.49226 -0.15341,9.49226 0.54571,0 2.73986,-1.13606 4.8759,-2.52458 z M 163.51084,90.086363 c 5.31267,-0.765021 6.19515,-1.38391 4.91808,-3.449088 -2.15468,-3.48436 -22.66219,-5.706578 -34.38844,-3.726372 -7.76107,1.310608 -9.60928,2.155864 -9.60928,4.394692 0,1.315663 0.96787,1.846007 4.58624,2.51304 5.50821,1.015414 28.08424,1.190643 34.4934,0.267728 z M 73.829788,148.2492 c -15.16096,-3.23131 -25.364693,-10.61357 -31.14653,-22.53407 -2.328304,-4.8003 -2.551615,-6.07374 -2.551615,-14.55078 0,-8.72548 0.175193,-9.64979 2.882635,-15.208761 5.418146,-11.124632 14.333841,-18.99188 25.945193,-22.894149 5.252524,-1.765235 7.778327,-2.045295 17.908195,-1.985659 19.713274,0.116055 21.557324,1.617985 23.932154,19.492069 0.82893,6.238953 1.87135,15.91308 2.31648,21.49807 0.44513,5.58498 1.06347,12.85392 1.3741,16.15319 l 0.56476,5.99867 -3.8807,3.75851 c -8.47258,8.2058 -25.310848,12.83773 -37.344672,10.27291 z m 19.296776,-23.41897 c 5.450952,-3.86921 8.154866,-9.20954 8.027616,-15.85482 -0.24038,-12.552718 -7.952522,-20.750531 -19.521193,-20.750531 -9.086196,0 -16.289641,4.310631 -19.747552,11.817181 -3.667428,7.96138 -2.431434,16.67635 3.14583,22.1812 4.539141,4.4802 8.615042,5.79017 17.175668,5.52015 6.347102,-0.2002 7.549478,-0.52097 10.919631,-2.91318 z M 65.430157,108.47662 c -1.361533,-2.22679 0.616198,-6.91632 4.40599,-10.447346 4.192358,-3.9061 7.665345,-4.698047 9.059064,-2.065744 1.947735,3.678667 -5.467357,13.45338 -10.205726,13.45338 -1.47642,0 -2.943118,-0.42313 -3.259328,-0.94029 z M 126.23745,62.729473 c -1.21122,-2.287608 -1.19194,-6.777435 0.0396,-9.220448 0.53474,-1.060786 3.33896,-4.377011 6.2316,-7.369388 4.63662,-4.796501 5.19056,-5.737438 4.67846,-7.947013 -1.14719,-4.949817 -1.08305,-5.155331 1.60906,-5.155331 1.97031,0 2.95327,0.660316 4.20315,2.82351 2.42507,4.197124 0.99567,8.24236 -5.11974,14.488974 -3.77201,3.852933 -5.19734,6.062714 -6.01239,9.32136 -1.19933,4.795041 -3.92593,6.276265 -5.62972,3.058336 z m 19.19018,-0.05358 c -1.50539,-2.843205 -1.02622,-5.957118 1.35727,-8.820315 4.10919,-4.936217 7.75848,-3.099354 4.89082,2.461782 -1.0373,2.011574 -1.5481,4.289135 -1.27996,5.706995 0.39043,2.064448 0.16425,2.359491 -1.8088,2.359491 -1.33542,0 -2.62381,-0.696509 -3.15933,-1.707953 z"
       id="path12" /></g></svg>
