<?xml version="1.0" encoding="UTF-8" standalone="no"?>
<!-- Created with Inkscape (http://www.inkscape.org/) -->

<svg
   version="1.1"
   id="svg1"
   width="214"
   height="214"
   viewBox="0 0 214 214"
   sodipodi:docname="главная.png"
   inkscape:export-filename="главная.svg"
   inkscape:export-xdpi="89.719627"
   inkscape:export-ydpi="89.719627"
   xmlns:inkscape="http://www.inkscape.org/namespaces/inkscape"
   xmlns:sodipodi="http://sodipodi.sourceforge.net/DTD/sodipodi-0.dtd"
   xmlns="http://www.w3.org/2000/svg"
   xmlns:svg="http://www.w3.org/2000/svg">
  <defs
     id="defs1" />
  <sodipodi:namedview
     id="namedview1"
     pagecolor="#ffffff"
     bordercolor="#000000"
     borderopacity="0.25"
     inkscape:showpageshadow="2"
     inkscape:pageopacity="0.0"
     inkscape:pagecheckerboard="0"
     inkscape:deskcolor="#d1d1d1" />
  <g
     inkscape:groupmode="layer"
     inkscape:label="Image"
     id="g1">
    <path
       style="display:inline;fill:#3b82f6;fill-opacity:1"
       d="m 51.57344,169.90302 c -1.802544,-0.88846 -4.390044,-2.93774 -5.75,-4.55396 l -2.472648,-2.93857 v -27.87225 -27.87225 l -3.452168,1.44241 c -3.742545,1.56374 -7.413326,0.79223 -10.796002,-2.26905 -4.490342,-4.0637 -2.823541,-5.997955 28.24817,-32.780847 10.725,-9.244632 23.927389,-20.675302 29.338642,-25.401489 11.564791,-10.10068 13.030681,-11.016888 17.661356,-11.038632 4.50771,-0.02117 9.57522,3.28232 23.5,15.319534 l 11,9.508903 0.26621,-8.691437 c 0.34466,-11.253141 1.28003,-12.191436 12.15344,-12.191436 11.91075,0 11.48669,-0.776105 12.08035,22.109044 l 0.5,19.274615 8.75,7.38314 c 7.9189,6.681866 8.75,7.714705 8.75,10.873905 0,1.91993 -0.45547,4.34182 -1.01215,5.382 -1.27042,2.37379 -7.33875,3.59407 -10.56438,2.12438 l -2.42347,-1.10421 -0.0436,23.22856 c -0.0239,12.77571 -0.42243,25.18973 -0.88551,27.58672 -1.10809,5.73578 -3.71367,9.14397 -9.09137,11.89184 -4.39137,2.24388 -4.53676,2.24994 -53.44146,2.22723 -43.096515,-0.02 -49.435201,-0.21849 -52.31546,-1.63815 z m 34.777352,-33.3981 c 0,-30.16865 -1.412115,-27.94701 17.749998,-27.92567 7.5625,0.008 14.24513,0.34592 14.8503,0.75 2.96669,1.98091 3.3997,5.56875 3.3997,28.16895 v 23.06574 h 14.56574 c 8.01116,0 15.38883,-0.4405 16.39482,-0.97889 3.51082,-1.87893 4.03966,-6.45865 4.03242,-34.92033 l -0.007,-27.60077 -16.14286,-13.500004 C 108.34536,56.093256 106.19908,54.613754 101.10079,55.92646 98.753155,56.530928 90.721029,63.292073 66.613361,84.956692 l -14.34662,12.892743 0.292026,29.253865 c 0.269502,26.99759 0.437091,29.41404 2.172887,31.3306 1.708772,1.88671 3.172697,2.10204 16,2.35338 7.765526,0.15216 14.456638,0.1376 14.869138,-0.0324 0.4125,-0.16996 0.75,-11.08246 0.75,-24.25 z"
       id="path1" />
  </g>
</svg>
