<?xml version="1.0" encoding="UTF-8" standalone="no"?>
<!-- Created with Inkscape (http://www.inkscape.org/) -->

<svg
   version="1.1"
   id="svg1"
   width="214"
   height="214"
   viewBox="0 0 214 214"
   sodipodi:docname="главная.png"
   inkscape:export-filename="..\source\GlucoTrack\src\GlucoTrack.Client\wwwroot\icons\calendar.svg"
   inkscape:export-xdpi="89.719627"
   inkscape:export-ydpi="89.719627"
   xml:space="preserve"
   xmlns:inkscape="http://www.inkscape.org/namespaces/inkscape"
   xmlns:sodipodi="http://sodipodi.sourceforge.net/DTD/sodipodi-0.dtd"
   xmlns="http://www.w3.org/2000/svg"
   xmlns:svg="http://www.w3.org/2000/svg"><defs
     id="defs1" /><sodipodi:namedview
     id="namedview1"
     pagecolor="#ffffff"
     bordercolor="#000000"
     borderopacity="0.25"
     inkscape:showpageshadow="2"
     inkscape:pageopacity="0.0"
     inkscape:pagecheckerboard="0"
     inkscape:deskcolor="#d1d1d1" /><g
     inkscape:groupmode="layer"
     inkscape:label="Image"
     id="g1"><path
       style="display:none;fill:#3b82f6;fill-opacity:1"
       d="m 51.57344,169.90302 c -1.802544,-0.88846 -4.390044,-2.93774 -5.75,-4.55396 l -2.472648,-2.93857 v -27.87225 -27.87225 l -3.452168,1.44241 c -3.742545,1.56374 -7.413326,0.79223 -10.796002,-2.26905 -4.490342,-4.0637 -2.823541,-5.997955 28.24817,-32.780847 10.725,-9.244632 23.927389,-20.675302 29.338642,-25.401489 11.564791,-10.10068 13.030681,-11.016888 17.661356,-11.038632 4.50771,-0.02117 9.57522,3.28232 23.5,15.319534 l 11,9.508903 0.26621,-8.691437 c 0.34466,-11.253141 1.28003,-12.191436 12.15344,-12.191436 11.91075,0 11.48669,-0.776105 12.08035,22.109044 l 0.5,19.274615 8.75,7.38314 c 7.9189,6.681866 8.75,7.714705 8.75,10.873905 0,1.91993 -0.45547,4.34182 -1.01215,5.382 -1.27042,2.37379 -7.33875,3.59407 -10.56438,2.12438 l -2.42347,-1.10421 -0.0436,23.22856 c -0.0239,12.77571 -0.42243,25.18973 -0.88551,27.58672 -1.10809,5.73578 -3.71367,9.14397 -9.09137,11.89184 -4.39137,2.24388 -4.53676,2.24994 -53.44146,2.22723 -43.096515,-0.02 -49.435201,-0.21849 -52.31546,-1.63815 z m 34.777352,-33.3981 c 0,-30.16865 -1.412115,-27.94701 17.749998,-27.92567 7.5625,0.008 14.24513,0.34592 14.8503,0.75 2.96669,1.98091 3.3997,5.56875 3.3997,28.16895 v 23.06574 h 14.56574 c 8.01116,0 15.38883,-0.4405 16.39482,-0.97889 3.51082,-1.87893 4.03966,-6.45865 4.03242,-34.92033 l -0.007,-27.60077 -16.14286,-13.500004 C 108.34536,56.093256 106.19908,54.613754 101.10079,55.92646 98.753155,56.530928 90.721029,63.292073 66.613361,84.956692 l -14.34662,12.892743 0.292026,29.253865 c 0.269502,26.99759 0.437091,29.41404 2.172887,31.3306 1.708772,1.88671 3.172697,2.10204 16,2.35338 7.765526,0.15216 14.456638,0.1376 14.869138,-0.0324 0.4125,-0.16996 0.75,-11.08246 0.75,-24.25 z"
       id="path1" /><path
       style="display:none;fill:#3b82f6;fill-opacity:1"
       d="M 40.5,181.58836 C 36.463682,179.7944 33.160507,176.04645 31.976118,171.91673 31.399354,169.90567 31,147.93886 31,118.22448 31,64.657516 31.173001,62.583331 35.8496,60.080491 36.960005,59.486221 41.88885,59 46.802589,59 h 8.934073 l 0.549696,-4.098293 c 0.66256,-4.939755 3.80732,-8.549883 8.733381,-10.025767 C 72.069828,42.763682 79,48.599831 79,56.649223 V 59 h 29 29 l 0.004,-2.75 c 0.009,-6.727607 7.12772,-12.878768 13.51708,-11.680116 C 155.22168,45.45177 160,50.931795 160,55.441089 v 3.371496 l 9.9663,0.343708 c 11.44468,0.394691 12.78462,1.154195 14.10652,7.99579 0.46204,2.391354 0.83992,25.947917 0.83974,52.347917 -3.6e-4,50.47914 -0.18212,52.77552 -4.56748,57.70743 -1.01479,1.14127 -3.64508,2.90159 -5.84508,3.91184 -3.74942,1.72174 -7.97798,1.83573 -67.5,1.81963 -50.721419,-0.0137 -64.103712,-0.28551 -66.5,-1.35054 z m 132.09501,-11.69231 c 1.79477,-1.98221 1.92138,-4.38337 2.18824,-41.5 L 175.0665,89 H 107.53325 40 l 0.05961,35.25 c 0.06341,37.49739 0.574438,44.27802 3.498161,46.4159 1.474966,1.07852 13.82724,1.3341 64.478369,1.3341 62.4154,0 62.66114,-0.008 64.55887,-2.10395 z M 119.5,149.0764 c -6.67706,-1.92432 -9.24217,-7.80673 -6.075,-13.93137 2.80102,-5.41656 10.94522,-6.86572 15.12045,-2.69048 3.04522,3.04521 3.41767,10.15461 0.70455,13.44845 -2.01413,2.44524 -6.83366,4.01388 -9.75,3.1734 z M 58.454545,146.54545 C 56.586471,144.67738 56,143.03132 56,139.65624 c 0,-5.83529 2.296638,-8.61808 7.711948,-9.34443 3.713163,-0.49804 4.539386,-0.21432 7.239781,2.48607 3.440641,3.44064 3.972884,7.51344 1.585256,12.1306 C 70.853684,148.18362 69.216684,149 64.372758,149 c -2.34414,0 -4.257025,-0.79336 -5.918213,-2.45455 z m 28,0 C 84.586471,144.67738 84,143.03132 84,139.65624 c 0,-6.08277 2.30962,-8.71138 8.241713,-9.38002 4.205476,-0.47402 4.961708,-0.22665 7.710539,2.52219 C 102.23709,135.08324 103,136.76078 103,139.5 c 0,8.21343 -10.784974,12.80594 -16.545455,7.04545 z m 56.566185,-0.0234 c -1.69665,-1.80599 -2.35405,-3.72752 -2.42432,-7.08606 -0.081,-3.87281 0.3513,-4.99332 2.70935,-7.02206 7.12142,-6.12691 17.01697,-0.27823 15.27147,9.02606 -1.33968,7.14112 -10.7378,10.21134 -15.5565,5.08206 z M 60.703929,120.40389 c -5.358487,-2.90539 -6.234343,-10.02732 -1.780852,-14.48081 3.88974,-3.88974 9.99131,-4.0996 13.622378,-0.46853 3.631067,3.63106 3.421208,9.73263 -0.468532,13.62237 -3.294749,3.29475 -6.955909,3.72192 -11.372994,1.32697 z M 89.5,120.79218 c -3.228416,-1.85149 -4.43432,-4.04273 -4.468197,-8.1191 -0.02428,-2.9218 0.659547,-4.51828 2.891274,-6.75 4.085826,-4.08583 9.115439,-4.03841 13.279043,0.12519 2.70215,2.70216 2.9843,3.52518 2.48491,7.24844 -0.95804,7.14268 -8.163864,10.94976 -14.18703,7.49547 z m 27.27351,-0.35184 c -4.98182,-2.70348 -5.37491,-11.8203 -0.67651,-15.69034 3.21484,-2.64805 9.44868,-2.29523 12.44845,0.70455 1.8717,1.87169 2.45455,3.51278 2.45455,6.9111 0,3.7488 -0.48862,4.86771 -3.07673,7.04546 -3.44263,2.89678 -7.08822,3.23331 -11.14976,1.02923 z m 28.54186,0.55268 C 142.39541,119.81654 141,116.96566 141,112.17653 c 0,-6.12475 2.64691,-8.67653 9,-8.67653 6.35739,0 9,2.55092 9,8.68771 0,7.23653 -6.76868,11.59181 -13.68463,8.80531 z M 70.964816,71.065741 C 72.652901,67.911527 72.269778,55.412635 70.428571,53.571429 66.137769,49.280626 62,54.162672 62,63.516082 62,70.686953 63.219458,73 67,73 c 1.872986,0 3.302998,-0.69764 3.964816,-1.934259 z m 80.999174,0.977674 c 2.2724,-1.437263 2.73241,-14.331636 0.62598,-17.546455 -1.98662,-3.031958 -6.07049,-3.336137 -7.55479,-0.562701 -1.11401,2.081557 -1.42745,14.879918 -0.42819,17.483954 0.66663,1.737223 5.01464,2.106719 7.357,0.625202 z"
       id="path2" /><path
       style="fill:#3b82f6;fill-opacity:1"
       d="m 90.415186,182.63307 c -6.667021,-3.02058 -6.955423,-3.74024 -16.67496,-41.60954 l -6.282133,-24.47648 -4.979046,-1.84318 C 51.932291,110.7996 49.906256,106.7522 44.894445,79.575201 42.756839,67.98384 41.006114,57.477853 41.003945,56.228561 c -0.0054,-3.134792 4.435058,-5.21813 6.570516,-3.082671 0.894811,0.894811 2.888412,8.939288 4.938441,19.927346 1.890822,10.13472 4.214063,21.076616 5.162758,24.315324 1.548822,5.28746 2.138292,6.07633 5.774619,7.72804 5.596604,2.54211 14.495217,2.50071 17.779503,-0.0827 6.466923,-5.086889 6.166112,-11.428102 -1.68564,-35.5339 -3.045486,-9.35 -5.538799,-17.6975 -5.540695,-18.55 -0.0046,-2.069461 1.982342,-3.95 4.1735,-3.95 2.679609,0 4.103776,2.960741 10.341865,21.5 4.781906,14.211564 5.741567,18.230192 5.850674,24.5 0.117515,6.753036 -0.194912,8.07425 -3.136975,13.26584 -3.018752,5.32692 -3.162212,5.97398 -1.884529,8.5 0.760629,1.50379 4.902705,12.14152 9.204614,23.63941 8.969904,23.97423 7.330924,23.54545 14.399184,3.76701 C 115.1783,135.942 117,129.69875 117,128.29835 c 0,-1.40039 -1.84413,-5.3029 -4.09807,-8.67226 -3.73394,-5.58177 -4.05713,-6.57035 -3.63736,-11.12609 1.44432,-15.674872 19.22164,-41.136962 37.20255,-53.284451 13.97413,-9.440599 23.41351,-11.298905 28.37525,-5.58616 1.79369,2.065182 2.19959,3.410833 1.73281,5.744711 -0.68165,3.408245 -20.75575,65.65027 -23.38988,72.523 -1.90254,4.96392 -5.35313,7.98078 -10.28086,8.98861 -3.30746,0.67645 -3.39146,0.83059 -6.6209,12.14971 -5.54018,19.41822 -6.5034,22.31105 -9.01247,27.0668 -1.58719,3.0084 -3.62473,5.17287 -5.88349,6.25 -4.61126,2.19895 -6.4559,2.08134 -10.4897,-0.66884 -3.3813,-2.30531 -3.41079,-2.30721 -6.0438,-0.38889 -3.40792,2.48289 -10.468437,3.13745 -14.438894,1.33858 z M 100.82389,171.1023 c 0.17814,-1.19267 -3.136914,-11.2661 -7.366782,-22.3854 C 81.251126,116.63033 80.072946,114 77.906682,114 c -2.482144,0 -2.429324,0.64518 1.036461,12.66003 1.611912,5.58802 4.778213,17.23479 7.036226,25.8817 4.354615,16.67572 5.955401,20.75512 8.770609,22.35078 2.267587,1.28526 5.629142,-0.81239 6.073912,-3.79021 z M 125.53981,154.5 c 7.76044,-24.12474 8.27767,-25.12442 13.45156,-25.99854 2.36868,-0.40019 4.43981,-1.43861 5.01577,-2.5148 0.53959,-1.00823 4.62496,-12.96215 9.07861,-26.564287 4.45366,-13.602133 9.63131,-28.750276 11.5059,-33.662542 C 166.46624,60.847565 168,56.64204 168,56.414219 c 0,-1.217161 -4.84333,-0.09659 -9.35477,2.164348 -14.85968,7.447034 -32.74254,27.374619 -38.58937,43.001683 -2.82361,7.54677 -2.6387,9.08536 1.91587,15.94122 2.98667,4.49575 3.96788,6.9706 3.95621,9.97853 -0.01,2.45763 -2.84573,11.70078 -7.35543,23.9713 -4.03694,10.98422 -7.10998,20.57047 -6.82896,21.30278 0.32708,0.85236 1.80157,1.22253 4.09764,1.0287 L 119.42789,173.5 Z M 67.695058,92.75 C 66.569525,91.916124 65.020903,86.839414 63.04313,77.5 61.41253,69.8 59.33054,60.462647 58.416485,56.750327 56.568071,49.243214 57.286623,47 61.539737,47 c 2.874612,0 4.173123,3.434957 8.316623,22 4.281795,19.184678 4.468943,20.523649 3.199993,22.894703 -1.283859,2.398914 -2.924502,2.660649 -5.361295,0.855297 z"
       id="path3" /></g></svg>
