<?xml version="1.0" encoding="UTF-8" standalone="no"?>
<!-- Created with Inkscape (http://www.inkscape.org/) -->

<svg
   version="1.1"
   id="svg1"
   width="214"
   height="214"
   viewBox="0 0 214 214"
   sodipodi:docname="главная.png"
   inkscape:export-filename="..\source\GlucoTrack\src\GlucoTrack.Client\wwwroot\icons\nuts.svg"
   inkscape:export-xdpi="89.719627"
   inkscape:export-ydpi="89.719627"
   xml:space="preserve"
   xmlns:inkscape="http://www.inkscape.org/namespaces/inkscape"
   xmlns:sodipodi="http://sodipodi.sourceforge.net/DTD/sodipodi-0.dtd"
   xmlns="http://www.w3.org/2000/svg"
   xmlns:svg="http://www.w3.org/2000/svg"><defs
     id="defs1" /><sodipodi:namedview
     id="namedview1"
     pagecolor="#ffffff"
     bordercolor="#000000"
     borderopacity="0.25"
     inkscape:showpageshadow="2"
     inkscape:pageopacity="0.0"
     inkscape:pagecheckerboard="0"
     inkscape:deskcolor="#d1d1d1" /><g
     inkscape:groupmode="layer"
     inkscape:label="Image"
     id="g1"><path
       style="display:none;fill:#3b82f6;fill-opacity:1"
       d="m 51.57344,169.90302 c -1.802544,-0.88846 -4.390044,-2.93774 -5.75,-4.55396 l -2.472648,-2.93857 v -27.87225 -27.87225 l -3.452168,1.44241 c -3.742545,1.56374 -7.413326,0.79223 -10.796002,-2.26905 -4.490342,-4.0637 -2.823541,-5.997955 28.24817,-32.780847 10.725,-9.244632 23.927389,-20.675302 29.338642,-25.401489 11.564791,-10.10068 13.030681,-11.016888 17.661356,-11.038632 4.50771,-0.02117 9.57522,3.28232 23.5,15.319534 l 11,9.508903 0.26621,-8.691437 c 0.34466,-11.253141 1.28003,-12.191436 12.15344,-12.191436 11.91075,0 11.48669,-0.776105 12.08035,22.109044 l 0.5,19.274615 8.75,7.38314 c 7.9189,6.681866 8.75,7.714705 8.75,10.873905 0,1.91993 -0.45547,4.34182 -1.01215,5.382 -1.27042,2.37379 -7.33875,3.59407 -10.56438,2.12438 l -2.42347,-1.10421 -0.0436,23.22856 c -0.0239,12.77571 -0.42243,25.18973 -0.88551,27.58672 -1.10809,5.73578 -3.71367,9.14397 -9.09137,11.89184 -4.39137,2.24388 -4.53676,2.24994 -53.44146,2.22723 -43.096515,-0.02 -49.435201,-0.21849 -52.31546,-1.63815 z m 34.777352,-33.3981 c 0,-30.16865 -1.412115,-27.94701 17.749998,-27.92567 7.5625,0.008 14.24513,0.34592 14.8503,0.75 2.96669,1.98091 3.3997,5.56875 3.3997,28.16895 v 23.06574 h 14.56574 c 8.01116,0 15.38883,-0.4405 16.39482,-0.97889 3.51082,-1.87893 4.03966,-6.45865 4.03242,-34.92033 l -0.007,-27.60077 -16.14286,-13.500004 C 108.34536,56.093256 106.19908,54.613754 101.10079,55.92646 98.753155,56.530928 90.721029,63.292073 66.613361,84.956692 l -14.34662,12.892743 0.292026,29.253865 c 0.269502,26.99759 0.437091,29.41404 2.172887,31.3306 1.708772,1.88671 3.172697,2.10204 16,2.35338 7.765526,0.15216 14.456638,0.1376 14.869138,-0.0324 0.4125,-0.16996 0.75,-11.08246 0.75,-24.25 z"
       id="path1" /><path
       style="display:none;fill:#3b82f6;fill-opacity:1"
       d="M 40.5,181.58836 C 36.463682,179.7944 33.160507,176.04645 31.976118,171.91673 31.399354,169.90567 31,147.93886 31,118.22448 31,64.657516 31.173001,62.583331 35.8496,60.080491 36.960005,59.486221 41.88885,59 46.802589,59 h 8.934073 l 0.549696,-4.098293 c 0.66256,-4.939755 3.80732,-8.549883 8.733381,-10.025767 C 72.069828,42.763682 79,48.599831 79,56.649223 V 59 h 29 29 l 0.004,-2.75 c 0.009,-6.727607 7.12772,-12.878768 13.51708,-11.680116 C 155.22168,45.45177 160,50.931795 160,55.441089 v 3.371496 l 9.9663,0.343708 c 11.44468,0.394691 12.78462,1.154195 14.10652,7.99579 0.46204,2.391354 0.83992,25.947917 0.83974,52.347917 -3.6e-4,50.47914 -0.18212,52.77552 -4.56748,57.70743 -1.01479,1.14127 -3.64508,2.90159 -5.84508,3.91184 -3.74942,1.72174 -7.97798,1.83573 -67.5,1.81963 -50.721419,-0.0137 -64.103712,-0.28551 -66.5,-1.35054 z m 132.09501,-11.69231 c 1.79477,-1.98221 1.92138,-4.38337 2.18824,-41.5 L 175.0665,89 H 107.53325 40 l 0.05961,35.25 c 0.06341,37.49739 0.574438,44.27802 3.498161,46.4159 1.474966,1.07852 13.82724,1.3341 64.478369,1.3341 62.4154,0 62.66114,-0.008 64.55887,-2.10395 z M 119.5,149.0764 c -6.67706,-1.92432 -9.24217,-7.80673 -6.075,-13.93137 2.80102,-5.41656 10.94522,-6.86572 15.12045,-2.69048 3.04522,3.04521 3.41767,10.15461 0.70455,13.44845 -2.01413,2.44524 -6.83366,4.01388 -9.75,3.1734 z M 58.454545,146.54545 C 56.586471,144.67738 56,143.03132 56,139.65624 c 0,-5.83529 2.296638,-8.61808 7.711948,-9.34443 3.713163,-0.49804 4.539386,-0.21432 7.239781,2.48607 3.440641,3.44064 3.972884,7.51344 1.585256,12.1306 C 70.853684,148.18362 69.216684,149 64.372758,149 c -2.34414,0 -4.257025,-0.79336 -5.918213,-2.45455 z m 28,0 C 84.586471,144.67738 84,143.03132 84,139.65624 c 0,-6.08277 2.30962,-8.71138 8.241713,-9.38002 4.205476,-0.47402 4.961708,-0.22665 7.710539,2.52219 C 102.23709,135.08324 103,136.76078 103,139.5 c 0,8.21343 -10.784974,12.80594 -16.545455,7.04545 z m 56.566185,-0.0234 c -1.69665,-1.80599 -2.35405,-3.72752 -2.42432,-7.08606 -0.081,-3.87281 0.3513,-4.99332 2.70935,-7.02206 7.12142,-6.12691 17.01697,-0.27823 15.27147,9.02606 -1.33968,7.14112 -10.7378,10.21134 -15.5565,5.08206 z M 60.703929,120.40389 c -5.358487,-2.90539 -6.234343,-10.02732 -1.780852,-14.48081 3.88974,-3.88974 9.99131,-4.0996 13.622378,-0.46853 3.631067,3.63106 3.421208,9.73263 -0.468532,13.62237 -3.294749,3.29475 -6.955909,3.72192 -11.372994,1.32697 z M 89.5,120.79218 c -3.228416,-1.85149 -4.43432,-4.04273 -4.468197,-8.1191 -0.02428,-2.9218 0.659547,-4.51828 2.891274,-6.75 4.085826,-4.08583 9.115439,-4.03841 13.279043,0.12519 2.70215,2.70216 2.9843,3.52518 2.48491,7.24844 -0.95804,7.14268 -8.163864,10.94976 -14.18703,7.49547 z m 27.27351,-0.35184 c -4.98182,-2.70348 -5.37491,-11.8203 -0.67651,-15.69034 3.21484,-2.64805 9.44868,-2.29523 12.44845,0.70455 1.8717,1.87169 2.45455,3.51278 2.45455,6.9111 0,3.7488 -0.48862,4.86771 -3.07673,7.04546 -3.44263,2.89678 -7.08822,3.23331 -11.14976,1.02923 z m 28.54186,0.55268 C 142.39541,119.81654 141,116.96566 141,112.17653 c 0,-6.12475 2.64691,-8.67653 9,-8.67653 6.35739,0 9,2.55092 9,8.68771 0,7.23653 -6.76868,11.59181 -13.68463,8.80531 z M 70.964816,71.065741 C 72.652901,67.911527 72.269778,55.412635 70.428571,53.571429 66.137769,49.280626 62,54.162672 62,63.516082 62,70.686953 63.219458,73 67,73 c 1.872986,0 3.302998,-0.69764 3.964816,-1.934259 z m 80.999174,0.977674 c 2.2724,-1.437263 2.73241,-14.331636 0.62598,-17.546455 -1.98662,-3.031958 -6.07049,-3.336137 -7.55479,-0.562701 -1.11401,2.081557 -1.42745,14.879918 -0.42819,17.483954 0.66663,1.737223 5.01464,2.106719 7.357,0.625202 z"
       id="path2" /><path
       style="display:none;fill:#3b82f6;fill-opacity:1"
       d="m 90.415186,182.63307 c -6.667021,-3.02058 -6.955423,-3.74024 -16.67496,-41.60954 l -6.282133,-24.47648 -4.979046,-1.84318 C 51.932291,110.7996 49.906256,106.7522 44.894445,79.575201 42.756839,67.98384 41.006114,57.477853 41.003945,56.228561 c -0.0054,-3.134792 4.435058,-5.21813 6.570516,-3.082671 0.894811,0.894811 2.888412,8.939288 4.938441,19.927346 1.890822,10.13472 4.214063,21.076616 5.162758,24.315324 1.548822,5.28746 2.138292,6.07633 5.774619,7.72804 5.596604,2.54211 14.495217,2.50071 17.779503,-0.0827 6.466923,-5.086889 6.166112,-11.428102 -1.68564,-35.5339 -3.045486,-9.35 -5.538799,-17.6975 -5.540695,-18.55 -0.0046,-2.069461 1.982342,-3.95 4.1735,-3.95 2.679609,0 4.103776,2.960741 10.341865,21.5 4.781906,14.211564 5.741567,18.230192 5.850674,24.5 0.117515,6.753036 -0.194912,8.07425 -3.136975,13.26584 -3.018752,5.32692 -3.162212,5.97398 -1.884529,8.5 0.760629,1.50379 4.902705,12.14152 9.204614,23.63941 8.969904,23.97423 7.330924,23.54545 14.399184,3.76701 C 115.1783,135.942 117,129.69875 117,128.29835 c 0,-1.40039 -1.84413,-5.3029 -4.09807,-8.67226 -3.73394,-5.58177 -4.05713,-6.57035 -3.63736,-11.12609 1.44432,-15.674872 19.22164,-41.136962 37.20255,-53.284451 13.97413,-9.440599 23.41351,-11.298905 28.37525,-5.58616 1.79369,2.065182 2.19959,3.410833 1.73281,5.744711 -0.68165,3.408245 -20.75575,65.65027 -23.38988,72.523 -1.90254,4.96392 -5.35313,7.98078 -10.28086,8.98861 -3.30746,0.67645 -3.39146,0.83059 -6.6209,12.14971 -5.54018,19.41822 -6.5034,22.31105 -9.01247,27.0668 -1.58719,3.0084 -3.62473,5.17287 -5.88349,6.25 -4.61126,2.19895 -6.4559,2.08134 -10.4897,-0.66884 -3.3813,-2.30531 -3.41079,-2.30721 -6.0438,-0.38889 -3.40792,2.48289 -10.468437,3.13745 -14.438894,1.33858 z M 100.82389,171.1023 c 0.17814,-1.19267 -3.136914,-11.2661 -7.366782,-22.3854 C 81.251126,116.63033 80.072946,114 77.906682,114 c -2.482144,0 -2.429324,0.64518 1.036461,12.66003 1.611912,5.58802 4.778213,17.23479 7.036226,25.8817 4.354615,16.67572 5.955401,20.75512 8.770609,22.35078 2.267587,1.28526 5.629142,-0.81239 6.073912,-3.79021 z M 125.53981,154.5 c 7.76044,-24.12474 8.27767,-25.12442 13.45156,-25.99854 2.36868,-0.40019 4.43981,-1.43861 5.01577,-2.5148 0.53959,-1.00823 4.62496,-12.96215 9.07861,-26.564287 4.45366,-13.602133 9.63131,-28.750276 11.5059,-33.662542 C 166.46624,60.847565 168,56.64204 168,56.414219 c 0,-1.217161 -4.84333,-0.09659 -9.35477,2.164348 -14.85968,7.447034 -32.74254,27.374619 -38.58937,43.001683 -2.82361,7.54677 -2.6387,9.08536 1.91587,15.94122 2.98667,4.49575 3.96788,6.9706 3.95621,9.97853 -0.01,2.45763 -2.84573,11.70078 -7.35543,23.9713 -4.03694,10.98422 -7.10998,20.57047 -6.82896,21.30278 0.32708,0.85236 1.80157,1.22253 4.09764,1.0287 L 119.42789,173.5 Z M 67.695058,92.75 C 66.569525,91.916124 65.020903,86.839414 63.04313,77.5 61.41253,69.8 59.33054,60.462647 58.416485,56.750327 56.568071,49.243214 57.286623,47 61.539737,47 c 2.874612,0 4.173123,3.434957 8.316623,22 4.281795,19.184678 4.468943,20.523649 3.199993,22.894703 -1.283859,2.398914 -2.924502,2.660649 -5.361295,0.855297 z"
       id="path3" /><path
       style="display:none;fill:#3b82f6;fill-opacity:1"
       d="m 60.902958,185.98716 c -14.168689,-2.39668 -17.864499,-8.88174 -23.003573,-40.36454 -1.066337,-6.53255 -2.181486,-12.27005 -2.478107,-12.75 C 35.124656,132.39268 34.06921,132 33.075842,132 30.621858,132 26.282292,128.44657 24.48002,124.96136 23.591952,123.24403 23,119.33366 23,115.18452 23,103.3042 27.512652,100 43.738003,100 h 9.802241 L 59.357535,88.25 C 73.380347,59.92616 82.304764,50.704514 94.154691,52.293923 c 5.217289,0.699785 8.704389,3.124555 10.428839,7.251739 2.51704,6.024129 1.77175,8.840543 -6.624231,25.032833 L 89.918598,100.08559 97.559276,99.792797 105.19995,99.5 111.43784,84 c 12.10494,-30.078528 18.73608,-40.511191 29.45897,-46.347318 17.33234,-9.433442 35.74817,5.15409 33.80185,26.775096 -0.30064,3.339722 -2.38083,12.073855 -4.62264,19.409184 -2.24181,7.335329 -4.07602,13.972829 -4.07602,14.75 0,1.137124 2.29434,1.413338 11.75,1.414588 13.68358,0.002 17.68584,1.36824 20.49845,6.99845 3.03439,6.07419 1.61527,17.17815 -2.82208,22.08136 -0.97008,1.07193 -3.49397,2.22563 -5.60865,2.56378 -4.38307,0.70088 -3.88984,-0.64087 -6.35144,17.27829 -2.57289,18.72926 -5.60855,28.08574 -10.63491,32.77884 -5.65289,5.27807 -5.9783,5.30687 -58.54925,5.18011 -26.830167,-0.0647 -50.850789,-0.46754 -53.379162,-0.89522 z m 102.806702,-9.95167 c 4.20849,-2.56605 6.67738,-7.62885 8.79508,-18.03549 2.37282,-11.66041 4.2744,-24.88753 3.66545,-25.49648 C 175.47065,131.80398 45,131.8669 45,132.56678 c 0,2.77989 4.292881,27.08157 5.500123,31.1358 1.802554,6.05343 5.626574,11.00753 9.9503,12.89082 2.393474,1.04254 13.484139,1.33593 51.549577,1.36372 46.41892,0.0339 48.63772,-0.0486 51.70966,-1.92163 z m -91.295354,-17.2012 c -1.827133,-3.53329 -1.507661,-10.81195 0.58524,-13.33374 1.628805,-1.96259 6.435979,-1.92217 8.429025,0.0709 0.875152,0.87515 1.622452,3.42289 1.686583,5.75 C 83.361632,160.26526 82.433727,162 77.403235,162 c -2.751883,0 -3.644911,-0.56667 -4.988929,-3.16571 z m 21.142398,0.9432 c -2.247039,-3.20809 -2.077762,-11.99596 0.272037,-14.1225 2.610119,-2.36213 6.753749,-2.08915 8.614559,0.56752 0.85618,1.22237 1.5567,4.27225 1.5567,6.77749 0,5.75933 -2.16045,9 -6,9 -1.849304,0 -3.445989,-0.79865 -4.443296,-2.22251 z m 25.999996,0 C 118.70052,158.55512 118,155.50524 118,153 c 0,-5.75933 2.16045,-9 6,-9 3.91334,0 6,3.23024 6,9.28825 0,6.6744 -1.28121,8.71175 -5.47848,8.71175 -2.38823,0 -3.87396,-0.66509 -4.96482,-2.22251 z m 20.40635,0.67799 c -0.70511,-0.84961 -1.31877,-4.26306 -1.36393,-7.58684 -0.0663,-4.87784 0.29036,-6.31466 1.85052,-7.45548 2.65602,-1.94213 5.91701,-1.77048 7.89537,0.41558 1.89655,2.09567 2.28932,11.11749 0.61981,14.237 -1.28048,2.39259 -7.12939,2.64582 -9.00177,0.38974 z M 188.77749,122.4433 C 190.543,121.20668 191,119.91127 191,116.1433 191,113.53448 190.46,110.86 189.8,110.2 188.88737,109.28737 170.09401,109 111.32305,109 H 34.046106 l -1.635172,2.49559 c -1.143222,1.74477 -1.439002,3.54126 -0.983132,5.97126 C 32.720775,124.35898 28.32098,124 111.5,124 c 66.31216,0 75.31388,-0.18133 77.27749,-1.5567 z M 81.928049,96.75 C 82.546084,94.9625 86.190105,87.769625 90.025874,80.765834 93.861643,73.762042 97,66.915375 97,65.551017 97,61.220846 91.088482,59.585468 86.441716,62.630146 83.347384,64.657631 74.858296,77.378136 68.009481,90.25 L 62.821735,100 h 8.991308 8.991307 z m 76.223191,-3.477529 c 3.55793,-13.188904 3.90561,-11.902563 -3.83268,-14.180084 -3.75021,-1.103756 -8.72653,-2.492206 -11.0585,-3.085444 -3.2334,-0.822556 -4.38754,-1.66668 -4.86167,-3.555765 C 137.66654,69.53524 139.42371,67 142.1766,67 c 1.06245,0 5.93298,1.125 10.8234,2.5 4.89042,1.375 9.33415,2.5 9.87494,2.5 0.5408,0 1.5068,-2.521839 2.14667,-5.604086 1.87017,-9.00856 -1.13608,-17.85239 -7.12045,-20.947026 -10.20122,-5.275257 -20.93382,2.808838 -30.35616,22.865111 -7.50433,15.973625 -7.60884,14.41368 0.99474,14.848141 8.53661,0.431079 10.30409,1.542743 8.87615,5.582712 -0.96563,2.732004 -1.05224,2.755822 -10.31009,2.835384 -9.95249,0.08553 -10.18952,0.202863 -11.49502,5.690126 l -0.65911,2.770358 20.7598,-0.270358 L 156.47126,99.5 Z"
       id="path4" /><path
       style="display:none;fill:#3b82f6;fill-opacity:1"
       d="M 95.5,184.609 C 80.595134,180.96949 65.278205,169.3063 58.846333,156.69879 53.472861,146.16591 51.588533,128.61185 54.504006,116.24643 56.686435,106.99008 60.967192,99.290653 80.216266,70 89.794586,55.425 98.886497,41.35498 100.42051,38.733288 c 4.6652,-7.972997 10.02354,-9.936414 14.96439,-5.483288 3.12815,2.819353 41.06079,62.862663 46.71236,73.94064 3.35755,6.58134 4.8856,12.72501 5.54879,22.30936 0.73132,10.56907 -1.72045,22.35807 -6.26125,30.10636 -7.06978,12.06366 -19.33363,21.27514 -33.02914,24.80846 -7.33042,1.89117 -25.46698,1.99836 -32.85566,0.19418 z m 25.7582,-33.07242 c 7.83835,-3.27507 11.22104,-10.65304 10.50467,-22.91167 -0.3928,-6.72166 -1.1942,-9.76565 -4.64013,-17.62491 -7.19024,-16.399055 -13.46769,-23.448386 -17.73045,-19.910609 -1.96574,1.631419 -13.831127,19.871549 -17.043123,26.199629 -3.813698,7.51351 -4.370984,16.96874 -1.365995,23.17622 2.443302,5.04719 7.149628,9.34807 12.255708,11.19989 4.59853,1.66775 13.87862,1.60155 18.01932,-0.12855 z M 69.807231,128.15442 c 2.353776,-11.39585 8.308105,-23.11771 18.576216,-36.569671 6.187804,-8.106463 3.134651,-14.562396 -3.518581,-7.440087 -5.60033,5.995172 -15.218656,20.259248 -17.598328,26.098498 -3.209508,7.87551 -4.09483,17.84376 -1.884398,21.21731 0.915181,1.39674 2.013558,2.53953 2.440837,2.53953 0.427278,0 1.320193,-2.63051 1.984254,-5.84558 z"
       id="path5" /><path
       style="display:none;fill:#3b82f6;fill-opacity:1"
       d="m 35.20676,181.89189 c -3.032975,-1.76655 -1.965383,-3.92825 5.964306,-12.07676 6.866684,-7.05617 7.580881,-8.14083 6.5,-9.8716 -2.221578,-3.55731 -1.365993,-6.58653 3.338094,-11.8186 l 4.5524,-5.06337 -1.800201,-2.74745 c -1.290009,-1.9688 -1.800825,-4.68775 -1.8024,-9.59373 l -0.0022,-6.84628 24.83263,-24.666175 24.832631,-24.666176 -1.51842,-3.184163 c -5.007654,-10.501154 -0.957174,-19.395017 8.82567,-19.379012 4.44956,0.0073 5.85907,0.815143 16.36584,9.380157 l 7.22133,5.886747 6.22016,-5.886747 c 3.42109,-3.23771 7.50683,-7.354801 9.07943,-9.14909 l 2.85928,-3.262343 -2.85928,-3.574072 c -5.45623,-6.820258 -5.84868,-7.805486 -4.45215,-11.177005 1.48497,-3.585033 5.05225,-4.837098 8.54011,-2.997461 1.32768,0.700273 9.4202,8.156897 17.98337,16.570273 10.76938,10.580996 15.56825,15.976215 15.56566,17.5 -0.006,3.313692 -3.61474,8.569093 -6.35754,9.257491 -2.31207,0.580293 -7.8756,-1.510773 -9.04233,-3.398583 -0.29174,-0.472047 -4.13584,2.74713 -8.54244,7.153726 l -8.01199,8.011994 7.40865,7.75455 c 4.73643,4.957561 7.76756,9.054409 8.40372,11.358349 1.76179,6.38069 -1.60479,13.72756 -7.39999,16.14895 -4.84142,2.02288 -8.43323,1.76183 -13.91022,-1.01098 l -4.79484,-2.42746 -21.62464,22.07241 c -12.15459,12.40626 -23.033843,22.66581 -24.842522,23.42745 -3.939686,1.65901 -10.258937,1.74189 -15.398734,0.20197 -3.794277,-1.13679 -3.918939,-1.08734 -8.823178,3.5 -5.442747,5.09105 -7.015704,5.45494 -13.08408,3.02686 l -4.064345,-1.62623 -7.349311,7.12623 c -7.257011,7.03673 -9.386454,8.0416 -12.812471,6.04613 z m 32.757661,-22.17284 c 3.231069,-2.77924 2.630302,-4.9017 -2.344248,-8.28199 l -3.58456,-2.43577 -2.789426,2.67244 c -3.451465,3.30671 -3.460771,3.98809 -0.102335,7.49354 3.251141,3.39346 5.363317,3.52559 8.820569,0.55178 z m 48.280269,-28.23246 c 26.20031,-26.44484 26.51061,-26.65861 31.99628,-22.04273 4.48747,3.77596 7.57715,4.66375 10.09447,2.90055 3.83779,-2.68809 2.57005,-5.20401 -8.12868,-16.132068 -10.96593,-11.200979 -33.44927,-31.715764 -38.02562,-34.69625 -2.67277,-1.740716 -2.84932,-1.741017 -4.76414,-0.0081 -2.421,2.190976 -1.84513,4.640128 2.17468,9.248814 1.57579,1.806638 2.86508,3.812665 2.86508,4.457837 0,0.645173 -1.64609,2.858789 -3.65797,4.919146 l -3.65798,3.746104 3.65798,4.048939 c 4.0897,4.526809 4.05501,4.432788 2.62279,7.108919 -1.45535,2.719336 -3.65754,2.411238 -7.6176,-1.065741 -1.87925,-1.65 -3.73865,-2.995201 -4.132016,-2.989335 -1.429316,0.02131 -10.215204,8.811524 -10.215204,10.220225 0,0.79626 1.575,2.88097 3.5,4.63268 3.937126,3.5827 4.216101,4.68766 1.845013,7.30768 -2.512613,2.77641 -5.367277,2.2129 -9.567642,-1.88865 l -3.806954,-3.71739 -10.494406,10.45869 c -5.771923,5.75228 -10.758407,11.29049 -11.081075,12.30712 -0.87744,2.76457 3.056144,7.58581 12.229141,14.98877 10.120402,8.16756 14.18374,10.66765 17.375923,10.69107 1.948743,0.0143 7.855562,-5.3872 26.78793,-24.49626 z m 36.2852,-57.264605 c 8.48079,-8.956038 8.42044,-8.847771 6.53562,-11.724377 -0.91017,-1.389093 -2.20698,-2.506031 -2.8818,-2.482086 -0.67482,0.02395 -4.60195,3.164886 -8.72695,6.979869 l -7.5,6.936332 3,2.484168 c 1.65,1.366292 3.46692,2.500351 4.03759,2.520131 0.57068,0.01978 3.06167,-2.101537 5.53554,-4.714037 z"
       id="path6" /><path
       style="display:none;fill:#3b82f6;fill-opacity:1;stroke-width:1.11867"
       d="m 88.998544,185.79719 c -25.16684,-8.61847 -40.180647,-29.42833 -40.239482,-55.77386 -0.04639,-20.77048 2.347187,-25.22143 45.068128,-83.806232 10.84286,-14.869219 13.79749,-16.820105 19.46123,-12.849919 3.665,2.56911 48.83692,70.785281 51.12007,77.198751 1.25447,3.52387 2.09754,8.99568 2.47175,14.81501 0.50273,7.818 0.15923,16.26322 -1.1698,21.45502 -2.37969,9.29617 -7.9168,18.27985 -16.0553,26.04882 -11.53666,11.01284 -23.79962,15.47909 -42.36733,15.43041 -8.410243,-0.0221 -12.742547,-0.6185 -18.289266,-2.518 z M 107.4167,154.491 c 5.58637,-5.77321 16.86706,-21.28155 24.13433,-33.17907 l 3.68976,-6.04066 -2.69332,-2.18264 c -2.14989,-1.74226 -3.7236,-2.04586 -7.79962,-1.50474 -3.50183,0.46492 -5.76886,0.19308 -7.21483,-0.86508 -2.06018,-1.50763 -2.05366,-1.73234 0.28438,-9.80083 3.9668,-13.68932 4.15675,-16.103546 1.47794,-18.784486 -2.9569,-2.959252 -3.63322,-2.933931 -6.61997,0.247848 -3.41961,3.642896 -24.719585,37.714248 -25.518744,40.819668 -0.428412,1.66475 0.07273,3.3781 1.429829,4.88841 1.825855,2.032 3.006291,2.2551 9.357869,1.76871 11.763496,-0.90084 11.937246,-0.57254 6.075966,11.48064 -4.349598,8.94454 -6.352157,19.02756 -3.77901,19.02756 0.81963,0 4.04858,-2.6439 7.17542,-5.87533 z M 67.157537,124.83458 c 3.342655,-9.50565 6.883676,-16.19802 15.992606,-30.22532 6.699695,-10.317196 7.274035,-14.030198 2.259775,-14.609013 -2.600687,-0.300206 -3.831276,0.729458 -8.693687,7.274216 -8.882698,11.956033 -14.681147,24.450817 -15.377832,33.136927 -0.606493,7.56161 0.161537,13.0963 1.817331,13.0963 0.523555,0 2.324368,-3.9029 4.001807,-8.67311 z"
       id="path7"
       sodipodi:nodetypes="sssssssscssscsssssssssssssssssss" /><path
       style="display:none;fill:#3b82f6;fill-opacity:1"
       d="m 42.5,172.60153 c -1.65,-0.73055 -3.9,-2.337 -5,-3.56989 -1.903685,-2.13366 -2,-3.65549 -2,-31.60091 0,-26.83361 0.153382,-29.51292 1.782956,-31.14502 1.466612,-1.46888 3.879768,-1.84432 13.600834,-2.11605 11.384458,-0.31823 11.924203,-0.23894 14.717044,2.16201 L 68.5,108.82402 68.795912,135.91201 69.091823,163 H 74.045912 79 l 0.127426,-25.75 c 0.285284,-57.649699 0.305376,-58.279969 1.889752,-59.281778 0.815552,-0.515678 7.194805,-0.944487 14.176118,-0.952909 11.992034,-0.01447 12.779294,0.107473 14.250004,2.207193 1.34715,1.92333 1.5567,7.711652 1.5567,43.000004 V 163 h 5 5 v -55.77749 c 0,-48.864524 0.19294,-56.052951 1.5567,-58.000004 C 124.03353,47.11404 124.80029,47 137.5,47 c 12.69971,0 13.46647,0.11404 14.9433,2.222506 1.36376,1.947053 1.5567,9.13548 1.5567,58.000004 V 163 h 7.97695 c 7.45287,0 8.08703,0.16801 9.65251,2.55724 1.58781,2.4233 1.57028,2.69828 -0.33473,5.25 l -2.0103,2.69276 -61.89222,0.2149 C 57.739987,173.8873 44.906711,173.66712 42.5,172.60153 Z M 61,138.25103 60.5,113.5 52.25,113.20956 44,112.91912 l -0.141077,4.29044 c -0.323877,9.84978 0.227097,44.12061 0.72221,44.92172 0.295295,0.47779 4.222843,0.86918 8.727884,0.86975 l 8.190983,0.001 z"
       id="path8" /><path
       style="display:none;fill:#3b82f6;fill-opacity:1"
       d="m 100.02056,174.93525 c -4.013679,-1.68443 -6.038345,-4.0328 -9.643449,-11.18525 -3.708053,-7.3567 -4.897098,-7.94005 -9.501444,-4.66147 -1.61319,1.1487 -4.511284,2.5243 -6.440209,3.0569 -5.237289,1.44609 -13.007612,-2.39791 -18.24777,-9.0272 -6.168911,-7.80426 -6.502905,-12.19987 -1.432897,-18.85802 1.35686,-1.78189 2.235434,-3.8433 1.952386,-4.58091 -0.283048,-0.73761 -3.229592,-2.33104 -6.547875,-3.54094 -9.964945,-3.6334 -12.801985,-8.70427 -11.991462,-21.4333 0.587879,-9.232458 2.380308,-11.165155 14.59488,-15.737016 4.249511,-1.590574 5.17162,-4.964764 2.340413,-8.564061 -2.824551,-3.590835 -4.364901,-9.59476 -3.221466,-12.556527 1.329199,-3.442943 7.106717,-10.393706 11.062613,-13.309105 4.479755,-3.301471 8.785712,-3.240805 15.022474,0.211649 4.669879,2.585083 5.133384,2.658471 7.72896,1.223758 1.811855,-1.00151 3.393166,-3.236256 4.599414,-6.5 3.493079,-9.451223 9.867222,-13.240791 20.448042,-12.156819 8.34107,0.854515 10.57699,3.104478 15.35138,15.447789 0.4818,1.245601 2.06593,2.806899 3.52029,3.469552 2.30684,1.051067 3.26592,0.857762 7.51525,-1.514728 5.8913,-3.28923 10.90582,-3.478512 15.58246,-0.58819 4.07657,2.519457 11.03469,11.013366 11.9237,14.55549 0.87638,3.491766 -1.13377,9.492461 -4.11943,12.297348 -4.50794,4.234984 -3.07249,6.474661 6.04457,9.431159 9.76798,3.167579 10.93861,5.050273 10.93861,17.592311 0,9.5366 -0.0962,9.96138 -2.92322,12.91219 -1.60778,1.67816 -5.59587,4.07021 -8.86243,5.31567 -3.26657,1.24546 -6.13987,2.76994 -6.38513,3.38773 -0.24526,0.61779 0.93033,3.29339 2.61243,5.94578 3.43234,5.41224 3.81354,9.03094 1.4464,13.73062 -5.95647,11.82585 -18.15471,16.42937 -27.37171,10.32985 -2.28542,-1.51242 -4.66977,-2.57837 -5.29856,-2.36877 -0.62878,0.20959 -2.73502,3.4758 -4.68051,7.25822 -4.70929,9.15578 -7.22332,10.87951 -16.338,11.20207 -3.9596,0.14012 -8.31502,-0.21348 -9.67871,-0.78578 z m 15.05636,-11.85833 c 1.6077,-1.60769 2.92476,-3.74519 2.92682,-4.75 0.006,-3.13715 3.60763,-7.91462 7.27933,-9.65696 5.02082,-2.38253 9.45671,-2.10582 13.30582,0.83004 4.54747,3.46853 7.89329,3.21782 12.01111,-0.9 4.0747,-4.0747 4.30091,-6.99032 0.9,-11.6 -3.00505,-4.07312 -3.16385,-7.77842 -0.55271,-12.89669 1.91981,-3.76313 3.3614,-4.66932 11.31039,-7.10981 4.78107,-1.46787 5.9135,-3.66022 5.54145,-10.72806 L 167.5,100.58298 161.70917,99.173739 c -9.3749,-2.281455 -14.38846,-9.043858 -12.61871,-17.020394 0.40838,-1.84066 1.6801,-4.344663 2.82603,-5.564451 2.50691,-2.668484 2.67031,-6.262588 0.43721,-9.616388 -3.77843,-5.674634 -6.5852,-6.246332 -12.13889,-2.472506 -4.45113,3.024621 -11.05485,3.32972 -16.19974,0.748446 C 120.28933,63.37918 116.04395,57.010835 116.01645,53.25 115.9894,49.550814 112.57684,47 107.65499,47 c -5.09303,0 -6.88633,1.569921 -9.162461,8.021174 C 94.6541,65.900441 84.098136,70.27029 75.595138,64.5 c -5.01049,-3.40021 -6.76262,-3.163899 -10.955971,1.477639 -3.907274,4.324885 -3.904886,5.11243 0.03337,11.004496 2.859518,4.27815 2.961827,8.85408 0.314002,14.044245 -2.115907,4.14752 -7.937104,7.960448 -12.196704,7.988933 -3.934458,0.02631 -5.090665,1.529967 -5.492208,7.142647 -0.565357,7.90246 0.898531,9.91797 8.41457,11.58535 7.113657,1.57812 10.6001,4.7774 11.721746,10.75628 0.572284,3.05054 0.173309,4.43735 -2.454886,8.53304 -3.582719,5.58318 -3.407758,7.38483 1.160817,11.9534 3.667065,3.66707 5.85001,3.77246 10.645311,0.51397 4.138994,-2.81252 8.641368,-3.18427 13.57903,-1.12118 3.798604,1.58716 7.546187,5.92832 8.28274,9.59464 0.779829,3.88173 2.917075,6.17951 6.547305,7.03908 5.61434,1.32937 6.86205,1.085 9.88266,-1.93562 z M 98,131.74313 C 84.073674,125.49574 77.981304,108.94335 84.794188,95.864192 88.905466,87.971494 96.808348,82.73434 105.43619,82.18496 c 11.26701,-0.717429 21.32022,4.641942 26.12064,13.924931 2.51343,4.860439 2.99461,13.713789 1.06165,19.533389 -3.6662,11.03792 -12.89803,17.40578 -25.06482,17.28904 C 103.67415,132.8951 99.375,132.35996 98,131.74313 Z M 116.91522,120.6748 C 121.48963,117.6476 124,112.71243 124,106.74675 124,92.094485 103.68009,86.147196 94.714896,98.175508 c -2.653435,3.560032 -3.350909,11.366532 -1.426951,15.971212 1.527913,3.65681 6.600951,8.21908 10.212055,9.18387 3.76273,1.00531 9.6416,-0.15852 13.41522,-2.65579 z"
       id="path9" /><path
       style="display:none;fill:#3b82f6;fill-opacity:1"
       d="m 52.313278,166.05526 c -3.398572,-1.54299 -4.411068,-2.64962 -5.378469,-5.87851 -3.189735,-10.64639 5.337792,-27.47401 17.597957,-34.72657 8.988963,-5.31747 10.77362,-5.54845 42.467234,-5.49637 27.93469,0.0459 29.8434,0.1678 35.97177,2.29733 12.8256,4.45674 24.75254,19.37931 25.82496,32.31129 0.33136,3.99571 0.004,6.09348 -1.25167,8.00915 -3.51864,5.37012 -4.18347,5.43026 -59.76294,5.40646 -48.228386,-0.0207 -51.53143,-0.13515 -55.468842,-1.92278 z m 103.104932,-8.66225 c 2.94049,-1.12837 1.4995,-9.90761 -2.64094,-16.09002 -3.69102,-5.51132 -12.71763,-10.93082 -21.43729,-12.87076 -6.29347,-1.40017 -11.13507,-1.60806 -27.73229,-1.19083 -17.575659,0.44184 -20.835819,0.78384 -25.890001,2.71598 -11.34433,4.33678 -19.498024,12.91414 -20.469509,21.53313 -0.383349,3.40106 -0.14349,4.96206 0.860113,5.59758 1.543757,0.97757 94.795557,1.26977 97.309917,0.30492 z M 97.286039,110.61444 C 82.267708,105.68851 73.570741,94.094736 73.570741,79 c 0,-5.987311 0.529449,-8.644631 2.625037,-13.175146 3.497929,-7.562281 9.769072,-14.16901 16.662715,-17.554386 4.92045,-2.416367 6.791822,-2.766179 14.641507,-2.736912 7.74516,0.02888 9.79336,0.41848 14.69015,2.794309 7.35138,3.566749 15.06301,11.907545 17.33575,18.750111 5.81523,17.508028 -1.56317,34.742804 -17.98334,42.006224 -6.10248,2.69942 -18.33847,3.47133 -24.256521,1.53024 z m 17.814741,-8.77068 C 136.5643,94.542991 137.78857,65.116929 117,56.194774 111.7627,53.947 102.42799,54.312369 96.74376,56.987622 81.044026,64.376615 78.125002,86.247486 91.329989,97.550463 c 5.854527,5.011257 16.178321,6.875857 23.770791,4.293297 z"
       id="path10" /><path
       style="display:none;fill:#3b82f6;fill-opacity:1;stroke-width:1.20065"
       d="M 82.441227,193.56174 C 74.550512,192.0283 67.26839,189.04017 60.590655,184.59565 49.531695,177.23507 28.513471,154.09921 28.632145,131.10705 28.752532,107.78357 37.596404,96.212068 62.864744,71.420896 78.712393,55.872515 90.732854,40.0459 93.273913,28.952215 96.126645,16.497838 91.120907,16.182934 103.6285,22.402156 c 7.20812,3.584133 19.89795,12.818107 26.995,25.712044 9.29201,16.881749 0.69261,40.167045 8.31455,41.181894 4.83171,0.643335 8.65267,-2.167812 12.72162,-9.359523 2.68523,-4.746055 4.81891,-7.622315 6.27315,-6.767672 29.51773,22.988097 32.46116,59.559581 25.08251,79.639651 -8.97452,24.42302 -30.9007,40.76926 -56.32289,41.98941 -4.67965,0.22461 -4.76344,-5.06979 -0.40194,-11.22121 17.3886,-24.5247 -2.17202,-47.4072 -17.34985,-46.21508 -21.532212,1.69124 -29.88929,28.35381 -16.647173,47.24777 6.248806,8.72238 3.203533,11.48948 -9.85225,8.9523 z"
       id="path11"
       sodipodi:nodetypes="ssssssssssssssss" /><path
       style="display:none;fill:#3b82f6;fill-opacity:1"
       d="M 81.850061,167.29308 C 46.672816,163.29097 22.797835,140.40666 22.741304,110.637 22.714804,96.681831 26.626914,86.799362 36.268735,76.465049 53.806334,57.66787 76.936491,51.511412 106.35548,57.810352 c 10.55236,2.25938 13.53293,3.804308 13.17405,6.82854 -0.47373,3.992067 -2.34167,4.329973 -11.32862,2.049327 C 92.7336,62.763031 74.858055,63.296065 62.248412,68.058484 41.947059,75.725913 28.704365,96.443589 31.476413,116.20007 c 2.755342,19.63742 16.616797,33.99251 38.894135,40.27924 7.823189,2.20772 10.072175,2.45427 22.243486,2.43847 14.079566,-0.0183 21.137196,-1.12983 30.838526,-4.85693 2.49759,-0.95954 5.36464,-1.74481 6.37122,-1.74506 1.86282,-4.5e-4 4.72164,2.49802 4.72164,4.12649 0,1.78312 -3.32207,3.86608 -9.61803,6.03059 -12.6814,4.35979 -30.045781,6.3028 -43.077329,4.82021 z m 56.920269,-13.08314 c -7.16827,-2.3997 -10.60734,-4.84697 -14.1539,-10.07203 -3.55755,-5.24127 -5.0431,-11.4843 -6.66877,-28.02562 -0.54889,-5.58498 -1.36311,-13.29716 -1.80939,-17.138169 -1.73467,-14.930041 -0.48676,-19.909034 5.67746,-22.652264 7.384,-3.286064 30.70943,-3.906615 43.74144,-1.1637 6.60202,1.389563 11.7932,6.313473 11.7932,11.186032 0,0.888153 1.33953,1.513564 4.14946,1.937338 8.31741,1.254373 12.55864,3.973891 15.17328,9.729242 2.17536,4.788391 2.03264,9.724231 -0.43405,15.011021 -3.49685,7.49473 -9.23983,12.02474 -21.55783,17.00462 -1.74358,0.70489 -2.54756,2.04844 -3.67194,6.13627 -1.90668,6.93198 -6.27537,13.31912 -11.20857,16.38719 -5.4034,3.3605 -13.93841,4.03422 -21.03039,1.66007 z m 16.53037,-8.95383 c 5.83415,-3.59553 8.24114,-10.22002 10.74975,-29.58532 0.94368,-7.28476 1.94979,-14.39238 2.2358,-15.794719 0.4962,-2.432914 0.40559,-2.521824 -1.9781,-1.941112 -1.37397,0.334722 -7.85463,0.836092 -14.40148,1.114142 -10.71347,0.45503 -19.66701,-0.26573 -25.56205,-2.057732 -1.56367,-0.475331 -1.61714,-0.07345 -1.03315,7.764571 0.94631,12.70081 3.09085,27.23902 4.5327,30.72802 2.93499,7.10206 9.71235,11.48358 17.8048,11.51069 3.27904,0.011 5.70867,-0.54105 7.65173,-1.73854 z m 24.71775,-26.37039 c 4.95732,-3.22249 7.37777,-5.91558 9.13296,-10.16171 2.75972,-6.67625 -0.0378,-10.770935 -8.011,-11.725433 l -4.29308,-0.513941 -0.20289,2.970565 c -0.11159,1.633819 -0.71841,7.242089 -1.34848,12.462839 -0.84406,6.99372 -0.88444,9.49226 -0.15341,9.49226 0.54571,0 2.73986,-1.13606 4.8759,-2.52458 z M 163.14221,89.717737 c 5.31267,-0.765021 6.19515,-1.38391 4.91808,-3.449088 -2.15468,-3.48436 -22.66219,-5.706578 -34.38844,-3.726372 -7.76107,1.310608 -9.60928,2.155864 -9.60928,4.394692 0,1.315663 0.96787,1.846007 4.58624,2.51304 5.50821,1.015414 28.08424,1.190643 34.4934,0.267728 z M 73.461162,147.88057 C 58.300202,144.64926 48.096469,137.267 42.314632,125.3465 c -2.328304,-4.8003 -2.551615,-6.07374 -2.551615,-14.55078 0,-8.72548 0.175193,-9.64979 2.882635,-15.208757 5.418146,-11.124632 14.333841,-18.99188 25.945193,-22.894149 5.252524,-1.765235 7.778327,-2.045295 17.908195,-1.985659 19.71327,0.116055 21.55732,1.617985 23.93215,19.492069 0.82893,6.238953 1.87135,15.913076 2.31648,21.498066 0.44513,5.58498 1.06347,12.85392 1.3741,16.15319 l 0.56476,5.99867 -3.8807,3.75851 c -8.47258,8.2058 -25.310844,12.83773 -37.344668,10.27291 z M 92.757938,124.4616 c 5.450952,-3.86921 8.154862,-9.20954 8.027612,-15.85482 -0.24038,-12.552714 -7.952518,-20.750527 -19.521189,-20.750527 -9.086196,0 -16.289641,4.310631 -19.747552,11.817178 -3.667428,7.961379 -2.431434,16.676349 3.14583,22.181199 4.539141,4.4802 8.615042,5.79017 17.175668,5.52015 6.347102,-0.2002 7.549478,-0.52097 10.919631,-2.91318 z M 65.061531,108.10799 c -1.361533,-2.22679 0.616198,-6.91632 4.40599,-10.447342 4.192358,-3.9061 7.665345,-4.698047 9.059064,-2.065744 1.947735,3.678667 -5.467357,13.453376 -10.205726,13.453376 -1.47642,0 -2.943118,-0.42313 -3.259328,-0.94029 z M 125.86882,62.360847 c -1.21122,-2.287608 -1.19194,-6.777435 0.0396,-9.220448 0.53474,-1.060786 3.33896,-4.377011 6.2316,-7.369388 4.63662,-4.796501 5.19056,-5.737438 4.67846,-7.947013 -1.14719,-4.949817 -1.08305,-5.155331 1.60906,-5.155331 1.97031,0 2.95327,0.660316 4.20315,2.82351 2.42507,4.197124 0.99567,8.24236 -5.11974,14.488974 -3.77201,3.852933 -5.19734,6.062714 -6.01239,9.32136 -1.19933,4.795041 -3.92593,6.276265 -5.62972,3.058336 z m 19.19018,-0.05358 c -1.50539,-2.843205 -1.02622,-5.957118 1.35727,-8.820315 4.10919,-4.936217 7.75848,-3.099354 4.89082,2.461782 -1.0373,2.011574 -1.5481,4.289135 -1.27996,5.706995 0.39043,2.064448 0.16425,2.359491 -1.8088,2.359491 -1.33542,0 -2.62381,-0.696509 -3.15933,-1.707953 z"
       id="path12" /><path
       style="display:none;fill:#3b82f6;fill-opacity:1"
       d="m 84.237925,172.16713 c -16.893875,-2.33664 -28.197413,-5.34706 -33.901044,-9.02872 -1.748861,-1.12887 -3.569971,-3.31998 -4.046912,-4.86911 -0.842897,-2.73778 -1.108684,-2.84837 -9.496912,-3.95173 -14.907129,-1.96083 -21.901026,-6.27067 -21.901026,-13.49603 0,-4.03413 3.764557,-8.68108 7.86377,-9.70698 2.48362,-0.62156 3.265317,-1.65858 5.578357,-7.40036 9.624725,-23.89194 27.885611,-39.414084 53.255139,-45.268005 4.729012,-1.091201 8.427453,-2.429048 8.427453,-3.048485 0,-1.708508 4.736878,-6.740757 7.771995,-8.256621 1.499772,-0.749049 5.098455,-1.361907 7.997065,-1.361907 4.47696,0 5.89663,0.461446 9.43195,3.065742 2.28895,1.686158 4.66887,4.048199 5.28872,5.24898 0.90788,1.758788 2.87523,2.605078 10.11942,4.353047 18.52213,4.469257 33.27326,14.461152 43.51998,29.478909 4.60475,6.74879 10.25834,18.32122 10.25834,20.99796 0,0.53254 1.62529,1.39261 3.61176,1.91126 5.25997,1.37334 7.74602,3.39736 8.82999,7.18897 0.70546,2.46763 0.62319,4.12022 -0.31121,6.2515 -2.5128,5.73146 -7.06212,7.87446 -21.14642,9.96124 -6.9902,1.0357 -8.66924,1.60501 -9.28006,3.14657 -3.51738,8.87702 -31.54978,15.51822 -64.34243,15.24348 -8.316042,-0.0697 -16.203611,-0.27654 -17.527925,-0.45971 z m 46.712165,-9.76054 c 7.54836,-1.05527 21.48731,-4.42711 22.06954,-5.33864 0.20838,-0.32622 -21.26073,-0.59313 -47.70913,-0.59313 -46.890716,0 -47.98795,0.041 -44.069848,1.64789 5.027842,2.06198 14.557134,4.1625 23.960411,5.28153 8.318308,0.98991 35.822197,0.39013 45.749027,-0.99765 z M 148.083,147.61095 c 25.56031,-1.47572 36.82126,-3.30649 37.95951,-6.17132 0.83935,-2.11253 -1.36367,-2.97023 -5.34787,-2.0821 -13.08312,2.91641 -117.38471,3.46813 -143.425882,0.75867 -5.968333,-0.62097 -11.153946,-0.83695 -11.523584,-0.47995 -1.499674,1.44841 1.628294,3.7727 6.55215,4.86869 5.06933,1.12837 25.197866,2.90536 38.938246,3.43756 18.275128,0.70784 62.12114,0.51867 76.84743,-0.33155 z m -3.64899,-14.86918 c 14.30259,-0.48524 26.99205,-1.15139 28.19878,-1.48033 2.76249,-0.75301 2.49782,-1.78869 -3.42194,-13.39041 -8.94752,-17.53559 -25.51269,-28.838368 -46.29553,-31.588453 -4.09721,-0.542161 -5.85545,-0.331215 -8.63111,1.035519 -4.29664,2.115669 -10.31114,2.200744 -15.23083,0.215439 -4.784353,-1.930692 -13.446156,-1.161709 -23.450807,2.08193 -13.580021,4.40282 -23.544045,11.874195 -31.321579,23.486025 -3.848385,5.74562 -8.19994,14.67688 -8.19994,16.8298 0,2.81292 61.365276,4.40462 108.352956,2.81048 z m 4.09334,-25.13619 c -4.6351,-3.57039 -8.42745,-6.90722 -8.42745,-7.4152 0,-3.059972 8.83061,1.20614 14.24956,6.88403 3.66199,3.83697 5.211,7.11836 3.32769,7.04928 -0.39729,-0.0146 -4.5147,-2.94772 -9.1498,-6.51811 z m -86.910852,2.84298 c -2.2495,-3.51533 15.732009,-15.832818 23.113327,-15.832818 3.194054,0 1.299336,3.758511 -3.688877,7.317548 -11.613537,8.28612 -17.827832,11.01034 -19.42445,8.51527 z M 92.944225,54.190668 c -1.85844,-1.910592 -2.142466,-2.984936 -1.728008,-6.536293 0.411696,-3.527692 1.344532,-5.116441 5.489378,-9.349182 4.002375,-4.087252 4.863975,-5.513096 4.341275,-7.184329 -0.35866,-1.146773 -1.03681,-2.482707 -1.506997,-2.968743 -1.733599,-1.792031 -0.835118,-3.302251 1.964617,-3.302251 4.3326,0 7.1315,3.977168 6.5198,9.264454 -0.39982,3.455761 -1.24034,4.842176 -5.03477,8.304711 -4.341872,3.962095 -4.552671,4.387887 -4.508763,9.107226 0.03819,4.104971 -0.240844,4.950804 -1.633241,4.950804 -0.923616,0 -2.680097,-1.028878 -3.903291,-2.286397 z m 17.693915,-0.03913 c -0.33238,-1.279041 -0.32301,-3.408067 0.0208,-4.731169 0.82092,-3.159004 4.96905,-7.106071 7.05944,-6.717262 2.3258,0.432596 2.64286,3.340246 0.60177,5.518526 -1.0872,1.160277 -1.64016,3.02205 -1.49896,5.046953 0.20888,2.995566 0.0312,3.208481 -2.6775,3.208481 -2.29141,0 -3.02827,-0.488819 -3.50557,-2.325529 z"
       id="path13" /><path
       style="display:none;fill:#3b82f6;fill-opacity:1"
       d="M 96.268134,175.48831 C 72.915818,172.40566 52.881929,158.2842 52.790096,144.84156 c -0.01459,-2.13506 0.607495,-3.55169 1.852171,-4.21782 2.112939,-1.13081 3.270064,-0.11451 7.046246,6.18868 4.912108,8.19928 21.302339,16.72088 36.079621,18.75849 13.547776,1.86808 25.775876,0.046 37.499996,-5.58776 7.635,-3.66883 19.0326,-14.8847 23.04181,-22.67439 1.62701,-3.1612 3.40819,-5.74181 3.95819,-5.73469 4.66025,0.0603 5.05741,7.37545 0.85173,15.68782 -3.40361,6.72712 -13.78478,16.68059 -21.87492,20.97368 -12.05241,6.39569 -29.79522,9.25681 -44.976806,7.25274 z M 26.5586,169.66047 c -3.02152,-2.69973 -3.262052,-3.39411 -3.550546,-10.25 -0.170203,-4.04475 0.04369,-20.37964 0.47531,-36.29975 L 24.268134,94.165064 20.616591,89.7482 c -5.202072,-6.292366 -6.276593,-11.09337 -5.466825,-24.42601 0.663237,-10.920047 2.167466,-23.673202 3.173768,-26.907838 0.779746,-2.5064 4.318956,-2.983615 6.43491,-0.867661 1.32803,1.32803 1.734948,2.911479 1.458575,5.675787 -3.55957,35.603161 -3.216236,38.299317 5.58458,43.855029 3.848772,2.429623 4.075187,2.456864 6.724703,0.809088 4.060646,-2.525379 7.009733,-6.096917 8.324948,-10.082057 1.369832,-4.150633 0.565687,-17.436751 -1.637826,-27.06021 -2.090101,-9.128152 -1.921953,-13.901884 0.516937,-14.675958 3.699526,-1.174184 5.72413,1.072198 7.401394,8.212154 4.1711,17.755983 4.901062,30.649788 2.166927,38.275857 -0.887349,2.475 -3.425956,6.348852 -5.641349,8.608559 -3.635361,3.708079 -3.977347,4.487875 -3.508471,8 0.285733,2.14029 1.045892,17.77439 1.689241,34.74244 1.140165,30.07135 1.120036,30.91794 -0.796521,33.5 -2.781997,3.74801 -5.984381,5.1173 -12.007671,5.13426 -4.372809,0.0123 -5.767621,-0.46185 -8.475311,-2.88117 z m 11.968715,-7.35409 c 0.988968,-1.2312 0.126378,-39.97768 -1.302351,-58.5 -0.573471,-7.434593 -1.805712,-10.367476 -2.941025,-6.999999 -0.231785,0.6875 -0.926344,15.338309 -1.543466,32.557349 -1.17621,32.81882 -1.054562,34.19265 3.027661,34.19265 0.965311,0 2.206943,-0.5625 2.759181,-1.25 z m 139.347385,8.98526 c -1.31638,-0.67939 -3.2669,-2.81026 -4.33448,-4.73526 -1.82481,-3.2904 -1.9028,-4.94 -1.30239,-27.54598 0.61955,-23.32633 0.57782,-24.10105 -1.39456,-25.88602 -1.11827,-1.01202 -3.04594,-4.36633 -4.2837,-7.45402 -2.00317,-4.99706 -2.2522,-7.372217 -2.26624,-21.613979 -0.0217,-22.000041 3.19234,-33.217229 12.5703,-43.871146 4.49079,-5.101806 7.95229,-5.954099 12.38526,-3.049504 3.26008,2.136087 4.24546,7.909304 4.93617,28.92065 0.30737,9.35 0.84221,25.775 1.18854,36.499999 0.34634,10.725 0.91429,26.925 1.26212,36 0.89415,23.32879 0.40749,27.47153 -3.65339,31.09993 -2.6212,2.34204 -4.15671,2.89723 -7.97997,2.88533 -2.60383,-0.008 -5.81127,-0.57061 -7.12766,-1.25 z m 9.41941,-9.81709 c 0.36341,-1.14501 0.33333,-11.29339 -0.0669,-22.55196 -0.7137,-20.07927 -0.76799,-20.46436 -2.84336,-20.16817 -2.06749,0.29507 -2.12194,0.78041 -2.38673,21.27612 -0.14903,11.53579 -0.0507,21.54829 0.21862,22.25 0.78672,2.05017 4.35138,1.48441 5.07833,-0.80599 z m -2.41017,-77.008788 c -0.21131,-13.42516 -0.66131,-27.544739 -1,-31.376842 l -0.61581,-6.967462 -3.23556,6.080363 c -4.95307,9.307927 -6.59959,17.027539 -6.68763,31.35456 -0.0911,14.822004 1.63285,20.937469 6.78823,24.080689 1.72423,1.05126 3.58496,1.75988 4.13496,1.57472 0.64431,-0.2169 0.86335,-9.01896 0.61581,-24.746028 z M 93.268134,150.16601 c -13.864513,-2.26623 -25.816791,-10.18086 -31.670417,-20.97172 -2.991039,-5.51382 -3.327823,-6.95133 -3.312274,-14.13791 0.02013,-9.30242 2.034223,-14.14303 8.101049,-19.469775 4.797448,-4.212215 7.421831,-5.266637 25.194869,-10.122777 8.077725,-2.207082 19.411769,-5.616045 25.186769,-7.575473 22.30336,-7.567418 31.62335,-5.13353 38.5869,10.076857 4.83699,10.565386 4.35628,23.213758 -1.34253,35.324308 -9.15185,19.44861 -35.32903,31.03077 -60.744366,26.87649 z m 24.999996,-20.06812 c 12.50503,-3.34475 22.94476,-10.72055 26.97819,-19.06045 1.08187,-2.23697 2.08751,-6.8287 2.29548,-10.48106 0.33423,-5.869806 0.0744,-6.960524 -2.67975,-11.249999 -4.02079,-6.262161 -5.97654,-6.147895 -8.84995,0.517067 -1.24081,2.878113 -2.25331,5.550449 -2.25,5.938524 0.003,0.388075 1.13103,2.363371 2.50603,4.389548 3.83885,5.65686 2.94194,10.43319 -1.95,10.38442 -2.11037,-0.021 -11.55894,-10.871704 -11.5405,-13.253016 0.005,-0.674599 1.83032,-4.096817 4.05577,-7.60493 2.89998,-4.571431 3.5347,-6.168238 2.2405,-5.636581 -0.99317,0.407993 -5.63077,2.090446 -10.30577,3.738784 -4.675,1.648337 -8.67525,3.160051 -8.88944,3.359363 -0.2142,0.199312 0.71443,1.837134 2.06362,3.639603 1.3492,1.80247 4.56195,6.780677 7.13945,11.062687 5.18968,8.6216 6.01811,13.15708 2.6013,14.24153 -2.98367,0.94698 -5.88553,-2.11169 -14.49374,-15.277 -4.04574,-6.187499 -7.933078,-11.247489 -8.638536,-11.244422 -0.705457,0.0031 -2.911667,0.458071 -4.902688,1.01112 l -3.620038,1.005543 7.934575,12.027139 c 9.468977,14.35296 9.708687,16.13225 2.305497,17.11302 -9.996593,1.32433 -16.125039,0.96336 -18.639212,-1.09789 -2.210835,-1.81255 -2.254373,-2.04372 -0.685452,-3.63961 0.958468,-0.97495 3.846753,-1.91278 6.75,-2.19175 2.791068,-0.26818 5.074668,-0.68449 5.074668,-0.92512 0,-0.78586 -10.359913,-17.412433 -11.156236,-17.904588 -0.426344,-0.263495 -2.608257,0.456089 -4.848696,1.599078 -5.449376,2.78006 -7.986614,7.13382 -7.99133,13.71268 -0.0032,4.42621 0.472582,5.75771 3.144706,8.80109 6.237818,7.10448 14.584298,9.63154 29.851552,9.03815 5.775,-0.22446 13.2,-1.13028 16.5,-2.01293 z M 32.339563,72.984953 c -1.291855,-1.291855 -1.569,-4.271859 -1.557774,-16.75 0.0075,-8.348215 0.281097,-16.176168 0.60797,-17.395453 0.786966,-2.935493 4.139087,-3.950978 6.209095,-1.880971 2.134768,2.134768 3.153028,33.707583 1.164388,36.103747 -1.609089,1.938834 -4.441618,1.904738 -6.423679,-0.07732 z m 33.03556,-8.010359 c -0.333844,-0.869983 -0.606989,-2.824021 -0.606989,-4.342306 0,-2.470134 0.815238,-3.135234 7.75,-6.322728 20.339842,-9.349005 40.495826,-11.645012 59.663836,-6.796423 15.3013,3.870497 25.58616,9.286639 25.58616,13.474001 0,6.391027 -2.43877,7.018602 -10.26514,2.641557 C 127.36924,52.368532 98.65325,52.172552 76.453823,63.143799 68.812987,66.92 66.282136,67.338232 65.375123,64.974594 Z"
       id="path14" /><path
       style="display:none;fill:#3b82f6;fill-opacity:1"
       d="M 58.018144,156.35069 C 44.70415,152.86523 34.485334,142.39464 31.410275,129.08725 30.61904,125.66316 30.50149,124.1513 30.69563,119.89587 c 0.273905,-6.00383 1.201558,-9.36661 4.167303,-15.10668 1.669648,-3.23153 2.826306,-4.72357 6.599047,-8.512509 4.098231,-4.115826 5.050545,-4.830458 9.145923,-6.863255 2.514254,-1.247983 5.942781,-2.609123 7.618949,-3.024755 3.189094,-0.790785 3.682988,-1.114158 3.693966,-2.418592 0.01191,-1.415601 2.66396,-7.219494 4.780168,-10.4612 12.423995,-19.031651 37.614054,-25.709251 59.730684,-15.83393 4.5401,2.027204 10.02752,6.023021 14.5152,10.569638 5.09619,5.163114 8.39782,10.178648 10.53818,16.008633 2.25797,6.15034 2.0464,5.830867 4.09019,6.176163 2.66794,0.450746 8.99654,3.824594 12.32682,6.571563 14.95456,12.335214 16.10025,34.763134 2.50568,49.050994 -4.56838,4.80136 -10.19741,8.17498 -16.8636,10.10676 l -3.76962,1.09239 -44.25004,-0.024 c -42.492569,-0.023 -44.379378,-0.0578 -47.506336,-0.87643 z M 152.6866,141.78118 c 3.70032,-0.96381 6.51413,-2.64759 9.10996,-5.4514 6.19838,-6.69499 7.40463,-16.34766 3.09587,-24.77378 -3.1082,-6.07831 -9.50506,-10.19168 -18.02079,-11.587897 -2.00934,-0.329445 -3.68695,-0.652927 -3.72804,-0.718847 -0.0411,-0.06592 -0.4304,-1.687182 -0.86514,-3.602804 -2.27011,-10.002963 -6.43645,-16.953247 -13.59031,-22.671326 -5.85029,-4.676132 -12.54908,-7.0451 -21.04697,-7.443072 -14.067316,-0.658799 -25.753491,5.865565 -31.325071,17.488712 -1.466207,3.058728 -2.334576,5.948768 -3.298929,10.979247 -0.22256,1.160969 -0.50573,1.438255 -1.65199,1.617661 -0.760863,0.119087 -2.852756,0.442538 -4.648651,0.718781 -4.143084,0.637285 -7.944104,2.149543 -11.902732,4.735575 -4.061236,2.65305 -6.853082,5.81511 -8.998297,10.19149 -2.324005,4.74113 -2.98095,8.64813 -2.217812,13.18982 1.413631,8.41299 6.302413,14.3931 13.876709,16.97444 l 2.929288,0.99831 44.860325,0.0112 c 38.92429,0.01 45.19938,-0.0771 47.42258,-0.65615 z m -54.319645,-9.97473 c -2.487609,-0.88732 -4.476925,-2.4151 -10.11299,-7.76671 -3.176908,-3.01657 -5.428639,-5.53295 -5.921104,-6.61702 -2.201086,-4.84528 0.461482,-9.33921 5.760391,-9.7225 3.348563,-0.24221 5.014649,0.6308 9.571156,5.01516 l 3.737342,3.59613 2.33314,-2.93126 c 6.17487,-7.75783 14.94662,-18.033702 15.96192,-18.698948 0.64796,-0.42456 2.27349,-0.813379 3.79095,-0.906778 2.23884,-0.137799 2.89456,-0.0018 4.17001,0.864569 3.1962,2.17119 4.21366,5.188761 2.85,8.452457 -0.35382,0.84682 -2.46836,3.73028 -4.69897,6.40771 -2.23061,2.67742 -5.81045,7.02166 -7.95521,9.65387 -5.59624,6.8681 -10.16474,11.54699 -12.17157,12.46565 -2.04991,0.93838 -4.99835,1.01402 -7.315065,0.18767 z"
       id="path15" /><path
       style="display:none;fill:#3b82f6;fill-opacity:1;stroke-width:1.32244"
       d="m 91.734319,173.61359 c -8.364424,-3.29775 -24.023165,-9.30514 -34.797198,-13.34975 -10.774034,-4.0446 -20.44437,-8.20904 -21.489636,-9.25429 -2.613978,-2.61399 -2.848693,-81.616713 -0.247435,-83.283436 0.909177,-0.582542 3.438342,-1.740223 5.620367,-2.572623 2.182024,-0.8324 16.166818,-6.405339 31.077319,-12.38431 14.910501,-5.978971 28.720834,-11.353578 30.689644,-11.943572 2.77143,-0.830522 7.10078,0.259214 19.17537,4.826609 8.57764,3.24463 19.7614,7.424206 24.85279,9.287948 8.89571,3.256335 12.5397,4.733534 22.35072,9.060488 2.47378,1.091012 5.07885,1.983658 5.78905,1.983658 3.59816,0 4.1717,4.92508 4.96223,42.611308 0.9565,45.59833 2.16707,41.60109 -14.70703,48.56182 -5.75318,2.37324 -12.24563,5.10888 -14.42765,6.07921 -15.09104,6.71079 -39.75571,16.46856 -41.51787,16.42515 -1.16744,-0.0287 -8.96624,-2.75044 -17.330671,-6.04821 z m 14.546831,-38.1062 V 99.235322 l -6.942806,-2.571288 c -14.188063,-5.254591 -12.893778,-5.944622 -12.893778,6.874156 0,14.55669 -0.766204,15.03612 -15.495597,9.69579 l -10.86706,-3.94 L 59.708237,95.349952 59.334564,81.40592 50.123456,78.421527 c -5.066111,-1.641416 -9.689918,-2.688474 -10.275126,-2.326795 -1.808002,1.117407 -1.120561,68.837228 0.713082,70.245578 0.869794,0.66807 10.210359,4.55904 20.756811,8.64662 10.546452,4.08759 24.531246,9.5138 31.077315,12.05825 6.546074,2.54445 12.348272,4.65058 12.893782,4.68027 0.54551,0.0298 0.99183,-16.26843 0.99183,-36.21806 z m 38.68134,22.98736 28.76305,-12.21602 v -35.51868 c 0,-19.535261 -0.49177,-35.518664 -1.09282,-35.518664 -1.01459,0 -21.1844,7.983785 -47.83742,18.935404 l -11.24074,4.618772 -0.35178,36.641548 c -0.27984,29.14698 -0.009,36.50166 1.32244,35.95761 0.92083,-0.37617 14.6176,-6.18114 30.43727,-12.89997 z M 80.314754,97.60916 c 0.237154,-14.362263 0.806078,-14.665567 16.471613,-8.781356 l 12.256223,4.603621 18.78647,-7.559563 c 10.33257,-4.157761 23.10094,-9.195192 28.37417,-11.194293 5.27322,-1.9991 9.5787,-4.029025 9.56772,-4.510944 -0.0106,-0.481918 -7.00336,-3.488909 -15.53866,-6.682201 l -15.5187,-5.805987 -11.24073,4.058227 c -6.18241,2.232025 -17.48926,6.528202 -25.126346,9.547062 -18.395793,7.271666 -23.113243,8.235185 -25.797568,5.269038 -1.90907,-2.1095 -1.732484,-2.438325 2.276289,-4.238697 2.390255,-1.073482 14.016248,-5.438198 25.835545,-9.699367 11.8193,-4.26117 21.48964,-8.139111 21.48964,-8.617648 0,-1.096249 -14.05418,-6.526887 -16.89121,-6.526887 -2.51384,0 -58.41356,21.517139 -58.457443,22.501673 -0.0167,0.374784 3.093888,1.769794 6.912431,3.100019 12.94538,4.509646 12.892857,4.432039 12.900523,19.061114 l 0.0067,12.863299 6.274844,2.09544 c 3.451165,1.1525 6.491917,1.92725 6.757227,1.72169 0.265311,-0.20558 0.562859,-5.24748 0.66122,-11.20424 z"
       id="path16" /><path
       style="display:none;fill:#3b82f6;fill-opacity:1;stroke-width:1.18142"
       d="m 58.70557,166.37596 c -10.152696,-3.4673 -17.352004,-10.02265 -21.793827,-19.84446 -3.268538,-7.22743 -3.498354,-8.68997 -3.490731,-22.21503 0.007,-12.37981 0.375498,-15.23707 2.542616,-19.71373 3.153567,-6.5144 9.070111,-11.9292 20.026246,-18.327924 C 60.656912,83.549118 68.948459,77.105652 74.415536,71.956 97.403362,50.302869 120.50161,41.589212 141.7082,46.570306 c 16.74003,3.931973 24.07322,10.96296 30.62758,29.365405 5.48938,15.412359 6.24925,21.806739 3.75043,31.560579 -2.60955,10.18608 -6.6344,16.76403 -15.94714,26.06295 -15.06975,15.0474 -34.05564,25.58839 -57.98219,32.19179 -14.131482,3.90009 -33.063887,4.17238 -43.45131,0.62493 z m 36.421154,-5.21556 c 23.192726,-4.39958 48.176616,-17.68889 62.929216,-33.47301 9.60861,-10.28045 15.91901,-27.58913 12.92509,-35.45202 -1.00688,-2.644352 -1.34171,-2.29578 -4.71108,4.90439 -6.60197,14.1081 -26.53538,30.42885 -48.98567,40.10769 -15.479,6.67338 -24.036433,8.47517 -40.528003,8.53328 -15.682729,0.0553 -22.082475,-1.4723 -31.687343,-7.56352 l -5.447921,-3.45498 0.72147,3.78838 c 3.728458,19.57785 24.839024,28.29031 54.784241,22.60979 z m -4.784079,-21.82268 c 19.759995,-3.11684 42.939185,-14.87876 58.556345,-29.71354 10.39413,-9.87342 12.65678,-13.27609 15.40693,-23.169689 1.98644,-7.146232 1.98252,-7.69345 -0.0975,-13.586368 -1.19201,-3.377126 -3.18245,-7.600188 -4.42318,-9.384584 C 154.56051,55.969453 138.47941,50.010936 126.69533,51.222756 110.21661,52.917351 95.350609,60.68489 77.825966,76.757182 71.389589,82.660147 63.090802,89.126316 59.38422,91.12645 c -16.674768,8.99796 -24.893604,22.46536 -19.547428,32.03044 2.381645,4.26111 8.306384,10.3874 11.830762,12.23325 8.400464,4.3996 25.041142,6.09812 38.675084,3.94758 z m -18.902773,-8.04534 c 0,-1.90416 1.332572,-2.28114 10.337454,-2.92442 10.963833,-0.78324 20.447694,-3.13199 27.830634,-6.8925 4.89748,-2.49453 10.22162,-2.00912 7.95248,0.72504 -1.81532,2.18732 -13.69435,7.31838 -21.877514,9.44982 -3.859981,1.0054 -10.893742,1.82799 -15.630595,1.82799 -7.592506,0 -8.612459,-0.25887 -8.612459,-2.18593 z m -18.015867,-4.60726 c -5.774162,-6.05264 -7.16016,-13.48093 -3.385163,-18.14285 1.89647,-2.34204 2.507185,-2.5186 4.110156,-1.18825 1.387355,1.1514 1.578406,2.13113 0.726122,3.72364 -2.123951,3.96864 -1.204524,7.48415 3.114017,11.90674 2.348837,2.40544 3.912384,4.95314 3.474546,5.66158 -1.385312,2.24148 -4.832852,1.40064 -8.039678,-1.96086 z M 123.70504,96.69827 c -12.68561,-1.5727 -18.01562,-9.389567 -13.58828,-19.928277 5.48953,-13.067083 26.15473,-14.400501 34.22319,-2.208243 3.83225,5.790925 3.02998,11.276843 -2.44194,16.6981 -4.85212,4.80718 -10.25563,6.42246 -18.19297,5.43842 z m 14.09149,-8.893453 c 4.03673,-3.867437 4.25855,-7.548023 0.68911,-11.434585 -3.02558,-3.29439 -9.41877,-5.730879 -12.43824,-4.740304 -6.30656,2.068951 -9.91836,4.472255 -11.59568,7.715815 -1.76773,3.418399 -1.74205,3.84326 0.40703,6.738808 3.51974,4.742299 7.22323,6.230899 13.78175,5.539529 4.16427,-0.43898 6.75635,-1.52022 9.15603,-3.819263 z"
       id="path17" /><path
       style="display:none;fill:#3b82f6;fill-opacity:1;stroke-width:1.14432"
       d="m 95.095379,165.63646 c -2.008672,-2.68243 -2.172832,-3.82388 -1.60827,-11.18268 l 0.62874,-8.19533 -9.176214,-6.08327 c -8.033123,-5.32548 -21.114028,-18.30212 -25.273269,-25.07182 -1.094117,-1.78082 -2.123864,-0.89332 -7.921844,6.82752 -5.468814,7.28251 -7.808925,9.38811 -13.045471,11.73817 -12.464146,5.59365 -14.887574,2.89781 -11.418517,-12.70207 0.830369,-3.73405 2.64238,-8.58673 4.026691,-10.78372 l 2.516928,-3.99452 -3.06369,-5.94654 C 27.591564,94.091451 25.03502,81.493607 26.160719,77.576106 c 0.534827,-1.861232 1.601197,-2.118839 6.377036,-1.540522 7.6924,0.931489 14.614551,5.855923 20.67098,14.705382 l 4.976021,7.270802 3.35006,-4.659547 C 66.990872,85.763475 79.290051,74.046084 86.86185,69.223229 l 7.059578,-4.496595 -0.464167,-9.388381 c -0.255292,-5.163609 -0.02607,-10.244778 0.509382,-11.291484 0.544477,-1.06435 3.402274,-2.260104 6.484257,-2.713127 8.68011,-1.275901 20.78776,5.708573 26.53914,15.309515 1.1727,1.957604 3.32587,3.11915 6.93162,3.739321 8.12605,1.397641 22.09185,11.080448 29.12268,20.191407 5.92747,7.681155 12.25124,20.512685 12.25124,24.858895 0,1.26427 -1.41825,5.85212 -3.15166,10.19521 -3.81049,9.54724 -12.85474,20.91238 -21.07591,26.48432 -5.66777,3.84136 -17.60569,8.96666 -20.88528,8.96666 -0.86229,0 -3.65295,2.31593 -6.20148,5.14649 -6.83349,7.58971 -12.31866,10.79398 -19.93769,11.647 -6.055934,0.67799 -6.929579,0.45968 -8.948181,-2.236 z m 19.725371,-8.68298 c 2.76205,-2.00754 5.02192,-4.15057 5.02192,-4.76229 0,-0.61172 -2.56222,-1.12676 -5.69383,-1.14455 -3.1316,-0.0177 -7.64645,-0.63348 -10.03298,-1.36825 -2.38655,-0.73475 -4.501243,-1.11949 -4.699343,-0.85494 -0.19809,0.26454 -0.65481,3.35164 -1.014925,6.86024 l -0.654751,6.37927 6.025999,-0.72969 c 3.8824,-0.47014 7.81241,-2.02814 11.04791,-4.37979 z m 18.19619,-13.22999 c 1.69499,-0.86978 1.68524,-1.06093 -0.19034,-3.72704 -1.08733,-1.54564 -3.21504,-6.37892 -4.72825,-10.74062 -5.58559,-16.10006 -4.319,-41.977392 2.73813,-55.941495 1.62932,-3.224 2.68975,-6.225938 2.3565,-6.670974 -0.33326,-0.445036 -5.14442,-0.93979 -10.69148,-1.099452 -21.19793,-0.610148 -39.619307,9.820974 -57.369067,32.485279 -2.586977,3.303262 -4.703595,6.645732 -4.703595,7.427722 0,1.64123 7.33208,11.25026 13.947945,18.27941 12.53894,13.32227 33.616397,22.57159 48.931697,21.47248 4.35701,-0.31267 8.72582,-0.98107 9.70846,-1.48531 z m 15.63181,-7.44984 c 7.2424,-4.82244 15.07078,-14.62169 19.19764,-24.03085 l 2.82367,-6.43791 -2.39084,-5.93696 C 164.97011,91.650674 153.5673,77.879836 145.89625,72.83668 l -6.39542,-4.204527 -2.34543,3.866214 c -8.21252,13.537526 -10.51187,33.327553 -5.92403,50.987073 1.69814,6.53648 7.74573,17.0145 9.82025,17.0145 0.68752,0 4.10622,-1.90183 7.59713,-4.22629 z m -4.05109,-33.46423 c -2.01384,-7.073458 3.37721,-12.605751 7.24745,-7.437337 1.69679,2.265945 1.89257,3.404871 1.10352,6.419737 -0.74066,2.82999 -1.68858,3.75952 -4.16024,4.07954 -2.68226,0.34727 -3.36139,-0.14893 -4.19073,-3.06194 z M 39.138883,126.71748 c 6.023971,-3.86612 9.255529,-7.55689 13.243979,-15.126 l 3.038767,-5.76686 -2.937974,-5.70253 c -1.615886,-3.136387 -4.611098,-7.547647 -6.656028,-9.802794 -3.649708,-4.024899 -13.535055,-9.219907 -14.667209,-7.708003 -1.177488,1.572449 1.969929,11.79703 5.166763,16.784548 3.75859,5.863939 4.136205,8.681199 1.423467,10.619999 -2.09404,1.4966 -7.028725,13.79692 -7.028725,17.51995 0,3.24267 2.462387,3.00327 8.41696,-0.81831 z M 105.4847,60.518998 c 3.81218,-1.078334 8.87962,-1.970939 11.26097,-1.983568 3.83064,-0.02031 4.18024,-0.263498 3.03289,-2.109686 -2.18113,-3.509638 -10.27649,-8.303436 -15.62097,-9.250213 -4.911843,-0.870134 -5.096503,-0.783196 -6.142842,2.891995 -0.85099,2.989036 -0.59617,12.41208 0.335649,12.41208 0.111678,0 3.322113,-0.882274 7.134303,-1.960608 z"
       id="path18" /><path
       style="display:none;fill:#3b82f6;fill-opacity:1"
       d="m 63.913474,169.19973 c -1.715645,-1.04616 -3.628145,-3.36163 -4.25,-5.14549 -0.756751,-2.17081 -1.130646,-14.70818 -1.130646,-37.91264 0,-40.101208 -0.109923,-39.434905 8.986726,-54.473304 3.307301,-5.467563 6.013274,-11.040961 6.013274,-12.385329 0,-1.344367 -1.125,-3.486919 -2.5,-4.761226 -3.22375,-2.987671 -3.483229,-9.429191 -0.5,-12.41242 1.837682,-1.837681 3.333334,-2 18.428572,-2 19.07583,0 19.57143,0.202955 19.57143,8.014725 0,3.842229 -0.4516,5.188182 -2.13682,6.368552 -3.30449,2.31456 -2.12792,9.030602 2.95312,16.85674 6.04667,9.313453 8.24379,15.195279 8.47843,22.697247 0.19133,6.116965 0.0524,6.584435 -2.04473,6.882285 -2.09693,0.29781 -2.25,-0.0508 -2.25,-5.124272 0,-6.49666 -1.88146,-12.247868 -6.00617,-18.359532 -4.7451,-7.030899 -6.97877,-11.946712 -7.648451,-16.832546 L 99.26098,56.109321 H 88.396904 77.532828 l -0.0098,3.25 c -0.0111,3.692517 -3.704269,12.197462 -7.401483,17.044759 -1.368477,1.794166 -3.400894,5.274322 -4.516482,7.73368 -1.918443,4.229285 -2.029532,6.462734 -2.050304,41.22156 -0.02117,35.43209 0.04976,36.82172 1.978038,38.75 1.854281,1.85428 3.333334,2 20.3,2 18.400843,0 21.209663,0.50828 20.014873,3.62185 -0.42389,1.10464 -4.32804,1.37741 -19.671861,1.37441 -17.050647,-0.003 -19.483963,-0.21164 -22.262366,-1.90585 z M 103.53283,48.109321 v -3 h -15.000002 -15 v 3 3 h 15 15.000002 z m 12.3083,121.990399 c -4.2195,-1.69962 -5.32231,-5.04134 -6.92712,-20.9904 -0.24904,-2.475 -1.6133,-11.83253 -3.0317,-20.79451 -2.47134,-15.61491 -2.50509,-16.37606 -0.8092,-18.25 1.66524,-1.84007 3.22699,-1.95549 26.45972,-1.95549 30.97679,0 29.21919,-1.14563 26.01919,16.9597 -0.53073,3.00284 -1.44389,9.75284 -2.02925,15 -0.58535,5.24716 -1.22598,10.4403 -1.42361,11.5403 -0.19764,1.1 -0.69208,4.89412 -1.09876,8.43137 -0.54484,4.739 -1.34954,7.04151 -3.05804,8.75 -2.22246,2.22247 -2.93224,2.316 -17.11408,2.25524 -8.1375,-0.0349 -15.78172,-0.46066 -16.98715,-0.94621 z m 31.4363,-5.2404 c 0.89303,-1.12815 1.52191,-5.42506 2.73127,-18.66205 0.4983,-5.45418 1.49265,-11.96543 2.21276,-14.48978 0.50139,-1.75763 0.10592,-1.85677 -5.2155,-1.30755 -3.16692,0.32685 -6.23393,1.07017 -6.81558,1.65183 -1.65029,1.65029 -7.14678,1.25087 -13.84689,-1.00624 -5.44941,-1.83577 -6.60926,-1.92117 -10.49804,-0.77295 -3.91489,1.15593 -4.31854,1.55452 -3.86224,3.81379 0.28025,1.38762 0.76899,5.76457 1.08608,9.72655 0.3171,3.96198 1.00111,8.68401 1.52004,10.4934 0.51892,1.80939 0.9435,4.66527 0.9435,6.3464 0,1.68113 0.54,3.5966 1.2,4.2566 1.71829,1.71829 29.18042,1.67334 30.5446,-0.05 z m -6.33567,-38.26083 c 2.69991,-0.81904 6.38209,-1.48917 8.18261,-1.48917 3.53365,0 3.77782,-0.38437 4.92331,-7.75 l 0.66095,-4.25 h -23.05652 c -18.56253,0 -22.95882,0.25457 -22.55531,1.3061 0.27565,0.71835 0.65023,3.08085 0.83238,5.25 0.18216,2.16914 0.3925,4.46373 0.46742,5.09907 0.0926,0.78556 1.97602,1.0049 5.88623,0.6855 3.57692,-0.29217 7.45067,0.0842 10.25,0.99596 5.89757,1.92081 8.48954,1.94825 14.40893,0.15254 z"
       id="path19" /><path
       style="display:none;fill:#3b82f6;fill-opacity:1;stroke-width:1.10316"
       d="m 50.517021,177.39886 c -0.424638,-1.10659 2.411304,-4.86325 8.30834,-11.00575 4.924171,-5.12913 8.953038,-9.74722 8.953038,-10.26243 0,-0.51521 -1.16979,-2.03571 -2.599534,-3.37889 -1.429744,-1.34316 -4.035965,-5.27698 -5.791602,-8.7418 -2.767941,-5.46264 -3.17985,-7.47228 -3.100106,-15.12497 0.07891,-7.57246 0.643292,-10.07813 3.975669,-17.6506 2.210195,-5.02242 4.6463,-8.97516 5.653453,-9.17308 1.268575,-0.2493 3.347688,2.79663 7.341803,10.75583 3.06463,6.107 5.258534,11.10362 4.87534,11.10362 -0.383193,0 -0.210004,0.62053 0.384864,1.37895 1.732026,2.20824 1.687025,15.39223 -0.06995,20.49187 -2.530761,7.34559 -8.390784,16.23032 -16.553645,25.09798 -7.52477,8.17446 -10.160118,9.68217 -11.377674,6.50927 z M 71.8635,145.15666 c 3.217064,-6.71371 2.703784,-18.01894 -1.202057,-26.47589 -1.751392,-3.79213 -3.638309,-6.89477 -4.19315,-6.89477 -1.330629,0 -3.933141,6.34261 -5.390141,13.13637 -0.944029,4.40185 -0.82504,6.46591 0.620944,10.77137 1.649094,4.91024 6.567677,13.59978 7.697941,13.59978 0.266295,0 1.376203,-1.86159 2.466463,-4.13686 z m 11.001295,19.08291 c -5.199664,-1.85429 -5.385652,-2.03738 -4.476385,-4.4069 0.537317,-1.40022 1.503139,-1.73931 3.611245,-1.26785 11.81635,2.6426 18.661855,1.73705 26.277235,-3.47606 6.33764,-4.33844 11.72358,-9.099 11.05299,-9.76959 -0.3158,-0.3158 -4.55671,-0.56544 -9.42424,-0.55475 -10.026675,0.0221 -16.464225,2.35405 -21.761395,7.88311 -5.819061,6.07379 -8.420803,2.75356 -3.202921,-4.08744 5.826471,-7.63889 17.683346,-10.56402 35.211846,-8.68688 9.24614,0.99018 10.04256,2.56055 4.31019,8.49875 -13.84549,14.34262 -29.321405,20.24586 -41.598565,15.86761 z M 104.43683,131.3645 c -2.96804,-0.95151 -3.48116,-1.56667 -2.89666,-3.47266 0.9783,-3.19005 0.68661,-3.11439 6.43078,-1.66799 6.34659,1.59808 14.53672,0.73159 20.13014,-2.12971 5.11342,-2.61578 15.79551,-11.0029 15.79551,-12.40197 0,-0.55514 -3.70455,-1.00933 -8.23234,-1.00933 -10.38569,0 -19.06414,3.08987 -25.60034,9.11473 l -4.77801,4.40421 v -3.5603 c 0,-9.42987 16.67698,-16.33231 35.9664,-14.88612 14.51377,1.08814 15.14768,2.23402 5.9394,10.73633 -8.50498,7.85293 -13.33838,11.05581 -21.18432,14.03789 -6.31892,2.40168 -15.56682,2.75964 -21.57056,0.83492 z M 87.190575,122.54183 C 79.468531,113.2234 75.782901,98.509019 78.802849,89.05498 c 2.925691,-9.158966 7.930586,-20.133493 9.447226,-20.715482 1.08655,-0.416948 2.50702,1.199898 4.48714,5.107494 9.900875,19.538448 10.857265,32.816638 3.45667,47.991678 -2.76525,5.67021 -4.99253,5.94311 -9.00331,1.10316 z m 6.47735,-9.92846 c 3.31032,-7.25102 2.84899,-18.307544 -1.12771,-27.027473 -1.72939,-3.792121 -3.45198,-6.894765 -3.82797,-6.894765 -0.376,0 -1.88907,2.606221 -3.362394,5.791603 -2.029538,4.387955 -2.67876,7.663132 -2.67876,13.513739 0,6.859966 0.410855,8.368766 3.6799,13.513736 2.023944,3.18538 4.016634,5.7916 4.428204,5.7916 0.41156,0 1.7115,-2.1098 2.88873,-4.68844 z M 115.71384,98.293364 c -4.35689,-1.527896 -8.5485,-7.452289 -11.56828,-16.350521 -3.62002,-10.666947 -2.62626,-20.687733 3.22204,-32.490101 4.54337,-9.168892 7.98048,-13.411147 9.9031,-12.222901 0.60071,0.371257 1.56924,2.281475 2.1523,4.244926 0.58304,1.963453 2.16132,7.226146 3.50727,11.694874 1.81803,6.03609 2.33667,10.080757 2.01733,15.732314 -0.23642,4.184046 -0.1651,7.474891 0.15848,7.312992 0.32359,-0.161899 3.07045,-1.597333 6.10415,-3.189855 3.0337,-1.592521 8.49435,-3.533282 12.13479,-4.312801 3.64043,-0.779521 7.26441,-1.913176 8.05329,-2.519235 0.99703,-0.765972 1.93867,-0.597581 3.08857,0.552325 1.47022,1.470222 1.21213,2.625524 -2.32001,10.385277 -4.36486,9.589177 -8.57443,14.640268 -15.71619,18.857956 -5.30906,3.135353 -15.22549,4.237496 -20.73684,2.30475 z m 14.19552,-5.340684 c 5.526,-1.534487 12.38707,-7.83828 15.74626,-14.467336 l 2.69079,-5.310024 -2.50069,8.71e-4 c -3.78449,0.0013 -15.36496,5.92596 -18.59487,9.513248 -3.23899,3.597374 -7.62382,9.802599 -7.62382,10.788891 0,1.042997 5.67876,0.75269 10.28233,-0.52565 z M 115.83785,81.724829 c 3.90781,-7.983166 4.51909,-15.37012 2.11624,-25.573456 -1.08135,-4.591833 -2.38123,-8.348787 -2.88861,-8.348787 -0.50738,0 -2.47598,3.077422 -4.37468,6.838715 -3.21553,6.36993 -3.41717,7.44752 -2.9417,15.720064 0.31312,5.447743 1.29412,10.480693 2.53745,13.018207 1.11483,2.275273 2.18207,4.136859 2.37163,4.136859 0.18956,0 1.62042,-2.606221 3.17967,-5.791602 z"
       id="path20" /><path
       style="display:none;fill:#3b82f6;fill-opacity:1;stroke-width:1.0909"
       d="m 91.599203,172.58822 c -1.888674,-1.88867 -2.061076,-3.16579 -1.509452,-11.18175 0.650093,-9.4469 -1.189461,-18.91539 -4.533301,-23.33364 -3.97765,-5.25572 -0.102054,-6.63411 4.217899,-1.50013 3.865344,4.5937 5.034814,9.70981 5.041874,22.05691 l 0.006,10.6363 h 14.181737 14.18174 l 0.12584,-10.6363 c 0.0692,-5.84997 0.20732,-11.12721 0.30691,-11.72721 1.39632,-8.41166 2.63635,-12.24989 6.34396,-19.63625 2.40936,-4.79998 4.89624,-9.36549 5.52641,-10.14561 0.82104,-1.01641 0.70271,-1.8614 -0.41754,-2.98165 -1.23884,-1.23885 -2.41735,-1.32746 -5.67866,-0.42696 -2.26347,0.62498 -5.66418,0.98491 -7.55714,0.79985 -3.05242,-0.29841 -3.55807,0.0622 -4.47006,3.18727 -1.08726,3.72575 0.33526,6.83984 3.12446,6.83984 1.60667,0 1.14241,3.0134 -1.31246,8.51876 -2.58191,5.79024 -5.14905,4.26385 -5.80985,-3.45446 l -0.54545,-6.37101 -2.73978,2.01698 c -1.50688,1.10934 -3.71596,2.57079 -4.90906,3.24767 -1.5867,0.90017 -2.0773,2.14531 -1.82677,4.63633 0.28402,2.82421 -0.0419,3.40566 -1.90908,3.40566 -1.654487,0 -2.251587,-0.7 -2.251587,-2.63958 0,-2.2181 -0.91454,-2.94001 -5.72725,-4.52092 -3.14998,-1.03472 -6.627324,-2.49911 -7.727429,-3.25418 -1.689,-1.15926 -2.936736,-0.8802 -8.019823,1.79366 -7.415539,3.90079 -13.100344,4.06274 -20.566834,0.58588 -9.676946,-4.50618 -17.978785,-16.7808 -17.963728,-26.56011 0.01452,-9.432922 7.813053,-21.557881 16.524366,-25.691669 3.702249,-1.756833 3.931386,-2.183807 4.492441,-8.371217 0.778772,-8.588442 4.388122,-14.978008 10.941718,-19.369925 6.908585,-4.629813 13.305564,-5.51654 23.004489,-3.188797 4.71143,1.130741 7.849977,1.423943 8.253487,0.771037 2.04735,-3.312695 16.57272,-5.315741 23.82444,-3.285387 6.67369,1.868521 14.56722,9.58473 16.6986,16.323515 1.47377,4.659621 1.74333,4.886292 6.45629,5.429004 9.2445,1.064536 16.67459,7.636843 20.06031,17.744389 2.2931,6.845704 2.20564,10.385424 -0.43066,17.431562 -3.57709,9.560648 -13.57724,17.166488 -22.57046,17.166488 -4.45032,0 -4.71904,0.20441 -8.24597,6.27269 -7.89537,13.58442 -8.83636,16.94133 -9.49149,33.86033 -0.47209,12.19181 -0.96007,15.81249 -2.23993,16.61957 -0.9,0.56752 -8.63177,1.03938 -17.18172,1.04856 -13.983227,0.0151 -15.759637,-0.19756 -17.677567,-2.1155 z M 73.143751,124.09253 c 2.023263,-0.84549 5.033572,-2.60315 6.689575,-3.90593 l 3.010913,-2.36868 3.29389,2.77163 c 3.789147,3.18835 9.241534,4.49691 14.571251,3.49704 4.55456,-0.85444 12.41598,-8.97251 13.3861,-13.82312 0.55678,-2.78393 1.06114,-3.23852 2.97138,-2.67814 8.21818,2.41082 12.94082,1.39126 18.93273,-4.08732 1.34763,-1.23218 2.77944,-1.91111 3.1818,-1.50876 0.40237,0.40237 0.0987,0.73158 -0.67472,0.73158 -1.12635,0 -1.13596,0.32574 -0.0482,1.63635 1.05102,1.26641 1.0653,1.98911 0.0632,3.19663 -1.03408,1.24598 -0.85568,1.79536 0.88561,2.72726 6.21684,3.32716 17.15433,-0.793 22.49107,-8.47239 2.78863,-4.012747 3.2873,-5.750334 3.2873,-11.454484 0,-5.487495 -0.55106,-7.571788 -2.99625,-11.332913 -4.12597,-6.346443 -7.46159,-8.220677 -15.9262,-8.94867 l -7.25922,-0.624326 -0.16488,-4.146975 c -0.34462,-8.667948 -9.27396,-16.766165 -19.7304,-17.893944 -4.49808,-0.485141 -11.45997,3.01755 -16.13037,8.115574 -4.089907,4.464374 -7.784577,4.395444 -6.650247,-0.124071 0.56243,-2.240933 0.0425,-2.805144 -4.01165,-4.353447 -5.997934,-2.290614 -8.974179,-2.214462 -14.680329,0.375621 -9.191263,4.172011 -13.958547,12.12865 -12.899532,21.529431 l 0.640312,5.683995 -4.464888,1.20227 c -6.607232,1.779143 -13.436223,9.06871 -15.136858,16.157751 -2.580046,10.754848 1.556765,20.001758 11.875941,26.545968 5.401201,3.42535 9.92539,3.87859 15.492732,1.55207 z"
       id="path21" /><path
       style="display:none;fill:#3b82f6;fill-opacity:1;stroke-width:1.17803"
       d="M 75.845615,173.14977 C 64.28019,167.12313 53.972,153.74048 48.250208,137.32395 c -2.692504,-7.72514 -2.365688,-23.92037 0.663731,-32.89097 3.027622,-8.965276 10.772232,-17.969207 19.206366,-22.329435 8.395809,-4.340414 22.210532,-4.545372 30.522388,-0.452835 3.111407,1.531975 5.819447,2.592197 6.017887,2.35605 0.19844,-0.236147 0.66755,-2.417276 1.04248,-4.846952 l 0.68169,-4.417595 -6.11057,-0.02587 C 87.455083,74.662066 76.644933,65.549722 72.874271,51.61977 c -2.505023,-9.254304 -1.64796,-11.462017 4.65741,-11.997041 11.582494,-0.982801 25.400439,7.412076 29.796409,18.102345 1.18242,2.875431 2.4149,5.215008 2.73886,5.199061 0.32396,-0.01595 2.27043,-2.797045 4.32551,-6.180217 4.79232,-7.889356 11.90797,-16.164435 13.89964,-16.164435 3.70048,0 2.98392,4.030823 -1.55503,8.747432 -8.29893,8.62377 -15.49209,23.181297 -15.49209,31.352909 v 3.21272 l 7.30427,-2.950331 c 17.18304,-6.940538 35.87649,1.468295 45.05446,20.266747 3.03668,6.21977 3.43925,8.3227 3.4955,18.25939 0.0451,7.96717 -0.57166,13.11256 -2.12276,17.70919 -5.48738,16.26164 -16.02415,29.95493 -27.54029,35.79061 -7.42139,3.76071 -18.94972,4.25227 -25.57958,1.09072 -3.92807,-1.87316 -4.51713,-1.87282 -9.75867,0.006 -8.225937,2.94831 -19.599226,2.55192 -26.252295,-0.91493 z m 26.244505,-5.48098 c 4.68188,-2.38851 4.84948,-2.39312 9.5811,-0.2633 3.10016,1.39547 7.56517,2.16696 12.53295,2.16551 6.76948,-0.002 8.48577,-0.4955 13.97712,-4.01929 7.38598,-4.73958 13.84592,-12.8906 19.23323,-24.26814 3.60164,-7.60634 3.89653,-9.12063 3.89653,-20.00937 0,-10.66262 -0.31944,-12.39494 -3.36698,-18.25938 -6.46616,-12.443 -13.97195,-17.66624 -26.69444,-18.576529 -6.78412,-0.485402 -8.91139,-0.155803 -13.16464,2.039725 -2.79014,1.440272 -6.28956,3.744599 -7.77648,5.120723 -2.22107,2.055563 -3.06193,2.247523 -4.71211,1.075723 -8.936017,-6.345542 -14.045907,-8.486116 -20.267977,-8.490423 -9.31225,-0.0065 -14.285701,1.724973 -20.39043,7.09857 -11.876992,10.454541 -16.272069,25.210601 -12.135782,40.744751 2.400819,9.01646 8.75822,21.14464 13.815096,26.3554 12.162455,12.53259 23.362156,15.46442 35.472813,9.28603 z m 1.69955,-103.102116 c -0.38248,-2.356977 -2.10212,-6.31526 -3.821397,-8.796185 -5.54371,-7.999575 -22.886026,-14.207505 -22.886026,-8.192379 0,1.257591 0.538758,2.619498 1.197241,3.026463 0.658482,0.406965 0.940178,1.155871 0.625992,1.664236 -0.314188,0.508366 0.934234,3.298203 2.774269,6.199638 3.899975,6.149621 11.331464,10.381309 18.233614,10.382711 l 4.571727,9.29e-4 z"
       id="path22" /><path
       style="display:none;fill:#3b82f6;fill-opacity:1;stroke-width:1.14338"
       d="m 44.759854,177.12624 c -6.324141,-2.75371 -7.341589,-6.94184 -7.341589,-30.22021 0,-20.21683 -0.0558,-20.69516 -2.753829,-23.60639 -6.730324,-7.26213 -9.057099,-18.77186 -5.953262,-29.448699 7.056287,-24.272774 52.122809,-41.341134 94.465986,-35.777767 23.75563,3.121195 39.90621,10.032804 49.42225,21.150141 10.16641,11.877171 10.37152,29.097215 0.48605,40.806405 -3.03152,3.59079 -3.03525,3.61969 -3.03525,23.5545 0,20.95391 -0.91358,26.34546 -4.81832,28.4352 -2.61131,1.39754 -21.38427,4.63624 -22.58222,3.89588 -0.43367,-0.26803 -5.37953,0.25787 -10.99078,1.16867 -14.02495,2.27649 -81.692361,2.30941 -86.899036,0.0423 z m 69.366996,-6.22203 c 1.98308,-2.45032 2.18455,-4.7501 2.18455,-24.93554 v -22.23626 l 3.28883,-4.22063 c 14.55206,-18.67509 1.49701,-41.665957 -27.101216,-47.727151 -22.844011,-4.841627 -45.956444,2.190562 -55.727523,16.95566 -2.524953,3.815456 -3.287176,6.48903 -3.680473,12.909621 -0.549939,8.97774 1.453237,14.59652 7.074423,19.8433 l 2.969718,2.77189 v 20.87878 c 0,22.13111 0.697834,26.15091 4.84273,27.89609 1.48056,0.62336 15.729202,0.97742 33.276807,0.82683 l 30.687584,-0.26333 z m 14.76173,0.98926 c 4.08757,-0.60079 12.83376,-1.65001 19.43596,-2.33161 17.75905,-1.8334 17.15215,-0.86346 17.15215,-27.41297 v -21.33726 l 3.86507,-5.04699 c 7.29283,-9.52298 8.04754,-18.420048 2.38253,-28.087349 C 165.17838,76.506752 152.05425,69.23563 130.60365,64.895356 119.49639,62.647934 97.223931,62.007329 89.442001,63.711454 l -4.573516,1.001532 9.292276,2.045152 c 16.760419,3.688827 27.139599,10.734711 33.078209,22.455081 2.74379,5.415129 3.34966,8.01189 3.28332,14.072451 -0.0857,7.82377 -3.16598,16.69816 -7.3372,21.13828 -1.94606,2.07151 -2.19706,4.61026 -2.51675,25.45572 -0.19531,12.73511 -0.0979,23.1438 0.21658,23.13043 0.31443,-0.0134 3.91607,-0.51584 8.00366,-1.11663 z"
       id="path23" /><path
       style="display:none;fill:#3b82f6;fill-opacity:1;stroke-width:1.20666"
       d="m 72.349368,178.89139 c -3.215377,-2.52922 -4.437837,-7.05807 -6.809097,-25.22571 -0.736284,-5.64112 -1.837196,-11.61407 -2.446471,-13.27322 -0.609274,-1.65915 -1.371544,-6.54611 -1.693935,-10.8599 -0.32239,-4.3138 -1.714676,-14.08053 -3.093968,-21.70385 C 56.926606,100.20538 55.524381,90.891922 55.189844,87.13212 54.246881,76.534347 54.522449,76.439693 86.318836,76.439693 h 26.231444 l 1.20972,-4.52496 c 0.66534,-2.488728 1.83829,-7.511433 2.60656,-11.161568 2.9677,-14.099879 6.98924,-17.559295 23.56084,-20.267481 8.31032,-1.358101 11.76152,-1.502363 12.73169,-0.532189 2.8389,2.838903 -0.0249,4.866217 -8.85918,6.271532 -9.81067,1.560635 -14.76706,3.177193 -16.63238,5.424763 -0.68327,0.823289 -2.33786,5.898737 -3.67687,11.278773 -1.33902,5.380038 -2.75656,10.620966 -3.1501,11.646509 -0.61402,1.600093 0.89096,1.864621 10.60832,1.864621 15.50757,0 17.25864,1.227453 16.15769,11.326119 -0.44233,4.057377 -2.11638,14.707478 -3.7201,23.666898 -1.60372,8.95943 -4.57802,26.77627 -6.60954,39.59299 -2.03154,12.81671 -4.3267,24.31672 -5.10038,25.55557 -2.71372,4.34537 -6.53868,4.92125 -31.799134,4.78765 -22.373681,-0.11837 -24.80724,-0.33735 -27.528048,-2.47753 z m 51.977062,-5.64438 c 2.24194,-1.77502 3.01217,-4.77441 5.18338,-20.18466 1.40258,-9.95491 3.66945,-24.54782 5.0375,-32.4287 2.8789,-16.58445 2.72399,-16.94479 -6.82081,-15.86534 -16.3026,1.84369 -30.165754,2.07045 -38.934834,0.63683 -8.825297,-1.44278 -21.32924,-1.77014 -23.21022,-0.60763 -0.473404,0.29257 -0.110083,5.02741 0.807377,10.52186 0.917461,5.49445 3.166249,20.57143 4.997306,33.50442 3.147492,22.23112 3.491611,23.5967 6.304989,25.02031 2.03305,1.02876 9.474438,1.50294 23.488952,1.49676 17.60637,-0.007 20.88629,-0.30446 23.14636,-2.09385 z m -2.03034,-75.249016 c 2.98623,-0.654707 7.86699,-1.040483 10.84614,-0.857281 l 5.41663,0.333095 0.84922,-4.78544 c 1.68536,-9.49711 2.24802,-9.008739 -10.37905,-9.008739 h -11.36735 l -0.77678,3.536591 c -1.58348,7.20956 -7.69799,7.410391 -6.25702,0.205513 l 0.74843,-3.742104 H 86.512146 61.647978 l 0.74793,4.524961 c 0.411361,2.488728 0.755793,5.61095 0.765402,6.938272 0.01633,2.25443 0.871187,2.42182 12.984833,2.542543 7.132043,0.07107 14.324853,0.746813 15.984003,1.501634 3.33178,1.515781 21.006494,0.819091 30.165944,-1.189045 z"
       id="path24" /><path
       style="display:none;fill:#3b82f6;fill-opacity:1;stroke-width:1.26636"
       d="m 66.993389,167.86551 c -1.214077,-1.06884 -3.015463,-3.94222 -4.003078,-6.38529 -0.987615,-2.44307 -3.89317,-6.19096 -6.45679,-8.32864 -7.111746,-5.93016 -10.584247,-11.08345 -13.152007,-19.51794 -7.152498,-23.49431 8.495717,-56.039636 33.098827,-68.8393 4.089809,-2.127705 11.620944,-4.868548 16.735849,-6.090761 5.114906,-1.222213 11.4076,-3.458461 13.98375,-4.969441 8.02303,-4.705714 13.16011,-2.896161 15.84485,5.581406 0.58027,1.832301 3.17829,6.594527 5.7734,10.582724 6.79059,10.435926 8.31857,16.222201 7.41259,28.070712 -0.95808,12.52989 -8.26856,29.60522 -17.70229,41.34785 -7.05518,8.78194 -20.30166,19.0819 -28.900083,22.47163 -3.141627,1.2385 -7.287494,3.54976 -9.213036,5.13611 -4.082929,3.36372 -10.184148,3.79145 -13.421982,0.94094 z m 19.924636,-11.63614 c 9.768601,-4.92769 20.631375,-13.58934 26.240805,-20.92362 2.58089,-3.3745 7.37493,-12.08488 10.65339,-19.35638 5.61889,-12.4625 5.92044,-13.76601 5.25635,-22.72246 -0.55435,-7.476303 -1.70417,-11.274516 -5.39446,-17.819742 -2.57947,-4.575024 -5.49821,-9.9874 -6.48604,-12.027502 l -1.79611,-3.709277 -4.05414,5.375006 c -2.22978,2.956252 -6.75698,8.623174 -10.06043,12.59316 -8.377721,10.068056 -9.905347,13.480255 -9.060829,20.238825 0.672755,5.38391 0.332261,6.18232 -5.006673,11.73973 -10.753964,11.19403 -11.412687,13.29594 -10.313012,32.90765 0.533209,9.50935 1.406998,17.28973 1.941749,17.28973 0.534751,0 4.170482,-1.61331 8.0794,-3.58512 z M 91.377603,133.533 c -1.784043,-1.3719 -0.981997,-4.24671 2.647551,-9.48964 2.105445,-3.04135 3.610283,-7.05228 3.610283,-9.62271 0,-2.9969 1.08684,-5.41229 3.395733,-7.54665 5.50519,-5.08903 6.86462,-7.86139 7.3124,-14.91255 0.48572,-7.648935 2.5608,-10.308722 5.14531,-6.59518 3.81814,5.48604 -0.13821,18.91266 -7.31938,24.84001 -1.70693,1.4089 -2.75761,3.87744 -2.75761,6.47896 0,2.31157 -1.25566,6.34001 -2.79034,8.95212 -1.534678,2.61209 -3.138914,5.62377 -3.564956,6.69261 -0.774695,1.94351 -3.864781,2.59811 -5.678991,1.20303 z m -21.191284,18.23047 c -0.006,-3.20653 -0.626413,-9.94593 -1.378635,-14.97645 -1.103431,-7.37926 -0.950174,-9.95388 0.793241,-13.32583 3.032655,-5.86545 7.703673,-12.43032 11.891177,-16.71241 2.916972,-2.98285 3.595872,-5.01034 3.718431,-11.10485 0.160352,-7.973707 2.870809,-13.313846 13.084387,-25.778774 2.75249,-3.359219 5.02983,-6.455524 5.06075,-6.880679 0.0956,-1.314757 -14.539,2.482975 -20.021881,5.195745 -7.123111,3.524308 -17.790243,12.319128 -22.247057,18.342217 -2.033731,2.748452 -5.473514,8.994931 -7.643965,13.881071 -3.316708,7.46661 -3.945606,10.74406 -3.942104,20.54399 0.0036,10.12844 0.488678,12.48063 3.692605,17.90662 2.02864,3.43559 6.034589,8.24348 8.90211,10.6842 2.86752,2.44073 5.213673,5.25162 5.213673,6.24644 0,0.99482 0.649851,1.80876 1.444114,1.80876 0.794262,0 1.439181,-2.62352 1.433154,-5.83005 z m 34.762541,11.45011 c -3.88012,-1.88802 0.96465,-4.50688 8.38761,-4.53396 14.05678,-0.0513 28.67237,-7.91126 36.78417,-19.78175 5.99788,-8.77705 6.54098,-11.28746 2.44191,-11.28746 -1.56058,0 -3.51014,-0.96659 -4.33234,-2.14797 -2.82568,-4.06007 -1.90521,-4.81443 4.91495,-4.02797 l 6.40987,0.73915 1.61227,-4.22213 c 6.43566,-16.85338 -0.30208,-35.295598 -15.77093,-43.167427 -3.00756,-1.530494 -6.19721,-4.012936 -7.08812,-5.516539 -1.42697,-2.408316 -1.27622,-2.733825 1.26613,-2.733825 3.57003,0 12.89751,4.443328 17.99325,8.571442 2.09696,1.698761 5.82639,6.086967 8.28766,9.75157 15.64305,23.291109 -5.81767,68.121029 -36.86457,77.007489 -8.61211,2.46501 -20.39048,3.12609 -24.04186,1.34938 z m 21.98128,-16.85196 c -1.18301,-0.90971 -0.30317,-2.80764 3.32146,-7.1648 2.71193,-3.26001 4.93078,-6.75434 4.93078,-7.76517 0,-1.21968 0.76836,-1.61116 2.28427,-1.16384 1.25637,0.37073 2.55607,0.67406 2.88822,0.67406 1.26057,0 0.53447,5.80244 -1.0166,8.12402 -1.82785,2.73583 -8.56313,8.53326 -9.9137,8.53326 -0.48681,0 -1.60931,-0.55689 -2.49443,-1.23753 z m 16.00707,-28.16621 c -0.5192,-1.04045 0.1229,-3.61227 1.42703,-5.71517 1.54296,-2.4881 2.37105,-6.71906 2.37105,-12.11441 0,-5.46474 0.56106,-8.29096 1.64593,-8.29096 8.3294,0 6.65459,20.9142 -2.12203,26.4991 -2.03766,1.29663 -2.51304,1.24246 -3.32198,-0.37856 z"
       id="path25" /><path
       style="fill:#3b82f6;fill-opacity:1;stroke-width:1.13997"
       d="m 50.539539,165.93254 c -2.854001,-1.15319 -3.533404,-2.68689 -4.535017,-10.23741 -0.520245,-3.92181 -1.360043,-5.87461 -2.710715,-6.3033 -1.076321,-0.34161 -3.189354,-1.93295 -4.695628,-3.5363 -2.178334,-2.31872 -2.783161,-4.29295 -2.956078,-9.64897 -0.170864,-5.29239 -0.854964,-7.56968 -3.19593,-10.63885 -1.638193,-2.14777 -3.277348,-5.74643 -3.642566,-7.99701 -0.630724,-3.88669 -0.442136,-4.18872 3.759364,-6.02069 5.986517,-2.6103 21.983747,-2.65306 28.888159,-0.0772 2.796934,1.04346 5.184617,1.79166 5.305962,1.66269 0.121345,-0.12898 0.515959,-3.00124 0.876923,-6.38279 0.845807,-7.923653 4.01928,-14.375125 10.092031,-20.516471 8.979545,-9.081006 20.688121,-13.604688 31.804926,-12.288067 5.97408,0.707542 18.333,5.728138 20.48568,8.321949 2.18709,2.635286 3.75616,1.777708 6.61813,-3.617154 5.75585,-10.849883 18.4009,-21.432568 23.34322,-19.53602 2.39417,0.918727 5.25456,7.51062 5.25456,12.109353 0,2.615402 0.76999,3.825418 3.25062,5.108195 5.15349,2.664974 7.25829,6.840418 6.85155,13.591915 -0.30834,5.11802 0.11968,6.521377 3.32169,10.89095 7.07455,9.65416 3.92519,13.68473 -11.42056,14.6161 -6.39935,0.3884 -11.49094,0.0233 -15.90304,-1.14044 -3.56949,-0.94146 -6.77564,-1.42608 -7.12479,-1.07692 -0.34916,0.34915 -0.63482,2.32553 -0.63482,4.39195 0,2.06642 -1.04308,6.54499 -2.31795,9.9524 -6.64213,17.75268 -28.25567,28.61724 -45.687845,22.96607 -6.36862,-2.06458 -15.826715,-7.34704 -15.830278,-8.84141 -0.0057,-2.39037 -2.225024,-0.26877 -4.649062,4.44432 -3.229608,6.27939 -10.329483,13.8513 -16.843683,17.96354 -2.575765,1.62601 -4.821649,2.92386 -4.990853,2.88412 -0.169206,-0.0398 -1.390505,-0.5098 -2.714,-1.04457 z m 10.157931,-11.4126 c 8.229258,-7.52108 15.521556,-21.66955 11.168753,-21.66955 -0.461496,0 -3.589305,2.05194 -6.950684,4.55986 -6.930975,5.1712 -7.438174,5.32402 -8.512934,2.56493 -0.567065,-1.45576 0.555373,-3.16959 4.15291,-6.34102 l 4.930007,-4.34606 -6.416992,0.7553 c -4.333887,0.51013 -6.678616,0.332 -7.222927,-0.54872 -1.503788,-2.43318 1.750901,-4.40956 8.563783,-5.20027 3.734596,-0.43345 7.0119,-1.14684 7.282895,-1.58533 2.661994,-4.30719 -20.958643,-8.86871 -31.015508,-5.98958 -2.582137,0.73922 -2.578884,0.75425 1.139966,5.26492 3.36782,4.0849 3.729493,5.24352 3.729493,11.94749 0,7.33447 0.05187,7.4576 4.306174,10.22223 2.368396,1.53908 4.519026,3.85749 4.779177,5.15201 0.260152,1.29453 0.782295,4.27737 1.160321,6.62855 0.378024,2.35118 1.135717,4.27488 1.68376,4.27488 0.548045,0 3.797857,-2.56035 7.221806,-5.68964 z m 54.00317,-9.69463 c 6.84424,-2.03251 15.13453,-8.95403 19.35917,-16.16285 6.51355,-11.11453 4.48513,-27.90321 -4.55641,-37.712125 -6.03104,-6.542907 -12.15202,-9.569674 -20.74797,-10.259675 -10.853675,-0.87123 -18.875705,1.959663 -26.074329,9.201367 -17.483235,17.587863 -10.43265,46.294413 13.392514,54.527793 7.265735,2.51086 11.245725,2.5975 18.627025,0.40549 z M 79.735099,108.87448 c 0,-7.74303 10.600226,-20.482779 17.042886,-20.482779 2.52003,0 1.02939,4.076795 -2.15256,5.88705 -4.28254,2.436401 -10.330461,10.769279 -10.330461,14.233389 0,1.91891 -0.6468,2.67889 -2.279932,2.67889 -1.531968,0 -2.279933,-0.75998 -2.279933,-2.31655 z m 93.192241,0.45807 c 3.34615,-0.89673 3.24811,-1.66548 -0.97683,-7.65945 -3.31209,-4.698896 -3.46909,-5.365425 -2.42114,-10.278926 1.01344,-4.751716 0.8734,-5.500852 -1.46433,-7.83323 -1.42172,-1.418462 -3.7094,-3.351291 -5.08374,-4.295172 -1.64079,-1.126884 -2.85801,-3.638977 -3.54497,-7.316093 -0.5754,-3.079967 -1.29279,-5.846552 -1.59421,-6.147967 -1.11304,-1.113037 -9.49589,5.731852 -13.00645,10.620213 -3.5629,4.961264 -6.9623,11.900909 -6.9623,14.213094 0,2.124221 2.45858,1.239621 8.13428,-2.926725 5.42573,-3.982852 8.96522,-4.478552 8.96522,-1.255567 0,0.853865 -2.30843,3.21027 -5.12985,5.236459 -2.82142,2.026187 -5.12985,3.934068 -5.12985,4.239735 0,0.305666 3.07791,0.207531 6.8398,-0.218078 6.3868,-0.722585 6.8398,-0.619084 6.8398,1.562766 0,2.381903 -0.49776,2.585023 -10.60179,4.326291 -6.01976,1.03742 -5.11697,3.77438 2.05204,6.2211 5.74364,1.96026 18.33376,2.78466 23.08432,1.51155 z"
       id="path26" /></g></svg>
